<?xml version="1.0" encoding="UTF-8" standalone="no"?><svg xmlns="http://www.w3.org/2000/svg" xmlns:xlink="http://www.w3.org/1999/xlink" fill="#000000" height="400" preserveAspectRatio="xMidYMid meet" version="1" viewBox="56.0 56.0 400.0 400.0" width="400" zoomAndPan="magnify"><g><g id="change1_1"><path d="M 456 256 C 456 366.457031 366.457031 456 256 456 C 145.542969 456 56 366.457031 56 256 C 56 145.542969 145.542969 56 256 56 C 366.457031 56 456 145.542969 456 256" fill="#004aad"/></g><g id="change2_1"><path d="M 347.632812 163.390625 L 213.597656 297.429688 L 164.363281 248.199219 C 154.945312 238.777344 139.667969 238.777344 130.246094 248.199219 C 120.824219 257.621094 120.824219 272.894531 130.246094 282.316406 L 196.535156 348.609375 C 201.246094 353.316406 207.421875 355.675781 213.597656 355.675781 C 219.769531 355.675781 225.945312 353.316406 230.65625 348.609375 L 381.753906 197.511719 C 391.175781 188.089844 391.175781 172.8125 381.753906 163.390625 C 372.332031 153.96875 357.054688 153.96875 347.632812 163.390625" fill="#ffffff"/></g></g></svg>