<?xml version="1.0" encoding="UTF-8" standalone="no"?><svg xmlns="http://www.w3.org/2000/svg" xmlns:xlink="http://www.w3.org/1999/xlink" fill="#000000" height="309.1" preserveAspectRatio="xMidYMid meet" version="1" viewBox="0.0 -13.7 381.0 309.1" width="381" zoomAndPan="magnify"><g><linearGradient gradientTransform="matrix(.02835 0 0 -.02835 -55.384 -95.38)" gradientUnits="userSpaceOnUse" id="a" x1="3707.119" x2="13641.392" xlink:actuate="onLoad" xlink:show="other" xlink:type="simple" y1="-8331.906" y2="-8331.906"><stop offset="0" stop-color="#5ce1e6"/><stop offset="1" stop-color="#38b6ff"/></linearGradient><path clip-rule="evenodd" d="M90.9,240.4c55,55,144.1,55,199.1,0c55-55,55-144.1,0-199.1c-55-55-144.1-55-199.1,0 C36,96.2,36,185.4,90.9,240.4z" fill="url(#a)" fill-opacity="0.102" fill-rule="evenodd"/><linearGradient gradientTransform="matrix(.02835 0 0 -.02835 -55.384 -95.38)" gradientUnits="userSpaceOnUse" id="b" x1="4405.334" x2="12943.166" xlink:actuate="onLoad" xlink:show="other" xlink:type="simple" y1="-8331.904" y2="-8331.904"><stop offset="0" stop-color="#5ce1e6"/><stop offset="1" stop-color="#38b6ff"/></linearGradient><path clip-rule="evenodd" d="M104.9,226.4c47.3,47.3,123.9,47.3,171.1,0s47.3-123.9,0-171.1C228.8,8,152.2,8,104.9,55.2 C57.7,102.5,57.7,179.1,104.9,226.4z" fill="url(#b)" fill-opacity="0.102" fill-rule="evenodd"/><linearGradient gradientTransform="matrix(.02835 0 0 -.02835 -55.384 -95.38)" gradientUnits="userSpaceOnUse" id="c" x1="3742.742" x2="13983.334" xlink:actuate="onLoad" xlink:show="other" xlink:type="simple" y1="-4054.198" y2="-12937.13"><stop offset="0" stop-color="#004aad"/><stop offset="1" stop-color="#010333"/></linearGradient><path clip-rule="evenodd" d="M113.4,217.9c42.6,42.6,111.7,42.6,154.3,0c42.6-42.6,42.6-111.7,0-154.3C225,21.1,156,21.1,113.4,63.7 C70.8,106.3,70.8,175.3,113.4,217.9z" fill="url(#c)" fill-rule="evenodd"/><linearGradient gradientTransform="matrix(.02835 0 0 -.02835 -55.384 -95.38)" gradientUnits="userSpaceOnUse" id="d" x1="13486.532" x2="14820.481" xlink:actuate="onLoad" xlink:show="other" xlink:type="simple" y1="-5407.361" y2="-6564.472"><stop offset="0" stop-color="#004aad"/><stop offset="1" stop-color="#010333"/></linearGradient><path clip-rule="evenodd" d="M335.1,83.7c5.5,5.5,14.5,5.5,20.1,0c5.5-5.5,5.5-14.5,0-20.1c-5.5-5.5-14.5-5.5-20.1,0 C329.5,69.2,329.5,78.2,335.1,83.7z" fill="url(#d)" fill-rule="evenodd"/><linearGradient gradientTransform="matrix(.02835 0 0 -.02835 -55.384 -95.38)" gradientUnits="userSpaceOnUse" id="e" x1="3716.275" x2="4209.088" xlink:actuate="onLoad" xlink:show="other" xlink:type="simple" y1="-10162.685" y2="-10590.16"><stop offset="0" stop-color="#004aad"/><stop offset="1" stop-color="#010333"/></linearGradient><path clip-rule="evenodd" d="M53,202.2c2.1,2.1,5.4,2.1,7.4,0c2.1-2.1,2.1-5.4,0-7.4c-2.1-2.1-5.4-2.1-7.4,0 C50.9,196.9,50.9,200.2,53,202.2z" fill="url(#e)" fill-rule="evenodd"/><linearGradient gradientTransform="matrix(.02835 0 0 -.02835 -55.384 -95.38)" gradientUnits="userSpaceOnUse" id="f" x1="12297.497" x2="12879.34" xlink:actuate="onLoad" xlink:show="other" xlink:type="simple" y1="-4894.515" y2="-5370.9"><stop offset="0" stop-color="#5ce1e6"/><stop offset="1" stop-color="#010333"/></linearGradient><path clip-rule="evenodd" d="M302,44.2c-1.9-1.9-5.1-1.9-7,0c-1.9,1.9-1.9,5.1,0,7c1.9,1.9,5.1,1.9,7,0C304,49.3,304,46.2,302,44.2z" fill="url(#f)" fill-rule="evenodd"/><linearGradient gradientTransform="matrix(.02835 0 0 -.02835 -55.384 -95.38)" gradientUnits="userSpaceOnUse" id="g" x1="4378.417" x2="5542.008" xlink:actuate="onLoad" xlink:show="other" xlink:type="simple" y1="-10992.273" y2="-11944.99"><stop offset="0" stop-color="#5ce1e6"/><stop offset="1" stop-color="#010333"/></linearGradient><path clip-rule="evenodd" d="M86.4,217.9c-3.9-3.9-10.1-3.9-14,0c-3.9,3.9-3.9,10.1,0,14c3.9,3.9,10.1,3.9,14,0 C90.2,228.1,90.2,221.8,86.4,217.9z" fill="url(#g)" fill-rule="evenodd"/><linearGradient gradientTransform="matrix(.02835 0 0 -.02835 -55.384 -95.38)" gradientUnits="userSpaceOnUse" id="h" x1="4737.287" x2="10560.517" xlink:actuate="onLoad" xlink:show="other" xlink:type="simple" y1="-3394.895" y2="-10697.292"><stop offset="0" stop-color="#004aad"/><stop offset="1" stop-color="#010333"/></linearGradient><path clip-rule="evenodd" d="M118.7,212.6c39.7,39.7,104,39.7,143.7,0s39.7-104,0-143.7c-39.7-39.7-104-39.7-143.7,0 C79,108.6,79,173,118.7,212.6z" fill="url(#h)" fill-rule="evenodd"/><linearGradient gradientTransform="matrix(.02835 0 0 -.02835 -55.384 -95.38)" gradientUnits="userSpaceOnUse" id="i" x1="6815.832" x2="11471.272" xlink:actuate="onLoad" xlink:show="other" xlink:type="simple" y1="-7317.474" y2="-10781.402"><stop offset="0" stop-color="#38b6ff"/><stop offset="1" stop-color="#004aad"/></linearGradient><path clip-rule="evenodd" d="M88.9,141.8c12.1-5,28.8-9.5,46-6.4c31.3,5.8,45.4-37.1,81.1-27.8c35.7,9.3,49.4,16.9,70.1-1.6 c13,35.9,5.1,77.7-23.7,106.6c-39.7,39.7-104,39.7-143.7,0C99.1,193,89.2,167.4,88.9,141.8L88.9,141.8z" fill="url(#i)" fill-opacity="0.2" fill-rule="evenodd"/><linearGradient gradientTransform="matrix(.02835 0 0 -.02835 -55.384 -95.38)" gradientUnits="userSpaceOnUse" id="j" x1="6950.526" x2="11415.837" xlink:actuate="onLoad" xlink:show="other" xlink:type="simple" y1="-7425.501" y2="-10917.896"><stop offset="0" stop-color="#38b6ff"/><stop offset="1" stop-color="#004aad"/></linearGradient><path clip-rule="evenodd" d="M89.9,155.2c11-2.2,27.2-3.3,46.6-0.8c30.2,3.8,51.7-24.2,79.4-12.9c27.8,11.3,61.5,4.6,72.4-28.1 c9.5,34.2,0.9,72.4-26,99.3c-39.7,39.7-104,39.7-143.7,0C102.5,196.5,92.9,176.2,89.9,155.2L89.9,155.2z" fill="url(#j)" fill-opacity="0.302" fill-rule="evenodd"/><linearGradient gradientTransform="matrix(.02835 0 0 -.02835 -55.384 -95.38)" gradientUnits="userSpaceOnUse" id="k" x1="7232.456" x2="11352.482" xlink:actuate="onLoad" xlink:show="other" xlink:type="simple" y1="-7722.286" y2="-11121.101"><stop offset="0" stop-color="#38b6ff"/><stop offset="1" stop-color="#004aad"/></linearGradient><path clip-rule="evenodd" d="M97.6,182c14.6,4.2,32.1,4.3,50.7-5.6c15.1-8.1,27.6-12.4,38.3-14.2c16.6-2.8,50.7,14.7,76,5.2 c13.1-4.9,27.4-18.1,28.2-42.7c5,31.1-4.5,64-28.5,87.9c-39.7,39.7-104,39.7-143.7,0C109.5,203.5,102.5,193.1,97.6,182L97.6,182z" fill="url(#k)" fill-opacity="0.4" fill-rule="evenodd"/><g id="change1_1"><path clip-rule="evenodd" d="M128.3,78.4c33.9-33.9,87.4-36.5,124.3-7.7c-36.9-34.7-94.9-34-130.9,2.1c-36.7,36.7-36.7,96.3,0,133 c2.8,2.8,5.7,5.4,8.7,7.7c-0.7-0.7-1.4-1.4-2.1-2.1C91.5,174.7,91.5,115.1,128.3,78.4z" fill="#5ce1e6" fill-opacity="0.549" fill-rule="evenodd"/></g><g id="change1_2"><path clip-rule="evenodd" d="M265.6,72.4c4.6,6.5,7.7,17.6-8.2,31.1c-25.5,21.6-29.5,51.9-17.6,80.5c11.9,28.6-27.9,26.1-29,41.3 c-0.4,5.7-1.3,11-3.7,15.7c20.2-3.3,39.7-12.8,55.3-28.4C300.9,174.1,302,112.3,265.6,72.4L265.6,72.4z" fill="#5ce1e6" fill-opacity="0.102" fill-rule="evenodd"/></g><linearGradient gradientTransform="matrix(.02835 0 0 -.02835 -55.384 -95.38)" gradientUnits="userSpaceOnUse" id="l" x1="1953.833" x2="15394.667" xlink:actuate="onLoad" xlink:show="other" xlink:type="simple" y1="-8786.866" y2="-8786.866"><stop offset="0" stop-color="#5ce1e6"/><stop offset="1" stop-color="#38b6ff"/></linearGradient><path clip-rule="evenodd" d="M353.4,123.2c17.5,6.1,27.6,13.2,27.6,20.8c0,22.2-85.3,40.2-190.5,40.2S0,166.2,0,144 c0-7.6,10.1-14.8,27.6-20.8c-13.7,5.1-21.4,10.9-21.4,17c0,20.1,82.5,36.3,184.3,36.3s184.3-16.3,184.3-36.3 C374.8,134.1,367.1,128.3,353.4,123.2z" fill="url(#l)" fill-rule="evenodd"/></g></svg>