<?xml version="1.0" encoding="UTF-8" standalone="no"?><svg xmlns="http://www.w3.org/2000/svg" xmlns:xlink="http://www.w3.org/1999/xlink" fill="#ffffff" height="161.1" preserveAspectRatio="xMidYMid meet" version="1" viewBox="-1.1 -0.0 160.2 161.1" width="160.2" zoomAndPan="magnify"><g data-name="Layer 2"><g data-name="Layer 1" id="change1_1"><path d="M91.14,160.84a5.27,5.27,0,0,1-1.61.2c-4-.16-6.81-5.22-6.26-11.3q1.08-10.45,2.3-20.94a22.05,22.05,0,0,1,7.15-14L94,113.69q5.22-4.64,10.5-9.83,6.39-6.26,13.67-12.5c2.79-2.39,7-2.89,9.32-1.14h0c2.27,1.72,1.68,5.08-1,7.51q-7.62,6.78-14.25,13.61c1.54-.89,3.11-1.77,4.7-2.66,9.21-5.17,17.59-13.7,21.18-22.82l3.24-8.35c1.33-3.47,6.11-6.27,10.72-6.26s7.07,2.78,5.51,6.24q-3,6.73-6,13.47c-5.19,11.63-15.11,23-25.57,31.9q-3.23,2.73-6.25,5.47a59.32,59.32,0,0,0-14.16,19.19c-3.12,6.55-8,11.56-12.68,12.84Zm-24.26,0-1.78-.47c-4.67-1.28-9.56-6.29-12.67-12.84a59.5,59.5,0,0,0-14.17-19.19q-3-2.75-6.25-5.47C21.55,114,11.63,102.6,6.44,91q-3-6.73-6-13.47C-1.09,74,1.35,71.27,6,71.26s9.39,2.79,10.72,6.26l3.24,8.35c3.59,9.12,12,17.65,21.18,22.82,1.59.89,3.16,1.77,4.7,2.66q-6.63-6.82-14.25-13.61c-2.73-2.43-3.32-5.79-1.05-7.51h0c2.3-1.75,6.53-1.25,9.32,1.14q7.29,6.24,13.67,12.5Q58.8,109,64,113.69l1.28,1.15a22.05,22.05,0,0,1,7.15,14q1.22,10.48,2.3,20.94c.55,6.08-2.28,11.14-6.26,11.3A5.27,5.27,0,0,1,66.88,160.84ZM64.24,42.78H92.69c7,0,13.2,3,16.28,7.38L79,63,49,50.12C51.68,45.76,57.31,42.78,64.24,42.78Zm14.84-3.66A19.56,19.56,0,1,1,98.71,19.56,19.6,19.6,0,0,1,79.08,39.12ZM79,102.46,45.48,85.27a1,1,0,0,1-.49-.65L38.8,51.71a1.1,1.1,0,0,1,.06-.62,1,1,0,0,1,1.32-.53L79,67.2l38.83-16.64a1,1,0,0,1,1.32.53,1,1,0,0,1,.06.62L113,84.62a1,1,0,0,1-.49.65Z"/></g></g></svg>