<?xml version="1.0" encoding="UTF-8" standalone="no"?><svg xmlns="http://www.w3.org/2000/svg" xmlns:xlink="http://www.w3.org/1999/xlink" fill="#f3f4f4" height="295.4" preserveAspectRatio="xMidYMid meet" version="1" viewBox="-2.3 0.0 209.9 295.4" width="209.9" zoomAndPan="magnify"><g id="change1_1"><path d="M189.635,86.949c-28.705,19.137-63.425,21.488-65.95,21.635c-0.21-0.017-0.42-0.032-0.635-0.032H84.416 c-0.216,0-0.428,0.015-0.639,0.032c-2.483-0.138-37.091-2.399-65.945-21.635c-3.676-2.451-8.643-1.458-11.094,2.219 s-1.458,8.643,2.219,11.094c25.803,17.202,54.959,22.285,67.731,23.746v52.877l-8.53,104.59 c-0.555,6.807,4.514,12.773,11.318,13.327c6.805,0.554,12.773-4.51,13.328-11.317l7.429-91.084h7.002l7.429,91.084 c0.555,6.808,6.523,11.872,13.328,11.317c6.805-0.555,11.873-6.52,11.318-13.327l-8.53-104.591v-52.876 c12.772-1.461,41.928-6.544,67.731-23.746c3.677-2.451,4.67-7.417,2.219-11.094C198.28,85.492,193.311,84.498,189.635,86.949z M99.933,116.052h3.801h3.799l1.9,7.5l-0.289,0.456c-1.566,1.306-3.484,1.96-5.413,1.962c-1.928-0.002-3.843-0.655-5.408-1.958 l-0.291-0.46L99.933,116.052z M103.734,180.552l-9.5-12l5.472-40.321c1.297,0.486,2.662,0.74,4.027,0.739h0.002 c0,0,0.004,0,0.006,0c1.363,0,2.725-0.254,4.021-0.74l5.473,40.322L103.734,180.552z" fill="inherit"/><path d="M103.733,57.854c-12.426,0-22.5,10.073-22.5,22.5c0,12.427,10.074,22.5,22.5,22.5c12.428,0,22.5-10.073,22.5-22.5 C126.233,67.927,116.161,57.854,103.733,57.854z M103.733,97.06c-5.931,0-11.126-3.157-14.035-7.868h28.07 C114.86,93.903,109.665,97.06,103.733,97.06z" fill="inherit"/><path d="M2.554,68.024c2.68,4.254,6.979,6.86,11.588,7.549c3.503,1.403,8.056,3.787,10.263,7.29 c3.86,6.126,14.016-0.273,10.156-6.399c-2.207-3.503-2.391-8.639-2.145-12.404c1.368-4.456,0.873-9.458-1.807-13.712 c-4.881-7.746-15.117-10.071-22.864-5.19C-0.003,50.039-2.327,60.278,2.554,68.024z M9.572,48.059 c6.133-3.864,14.269-2.017,18.135,4.12c2.037,3.234,2.557,7.199,1.427,10.876l-0.118,0.382l-0.028,0.404 c-0.135,2.107-0.108,4.05,0.059,5.85l-8.371,5.274c-1.553-0.928-3.298-1.792-5.26-2.578l-0.37-0.148l-0.395-0.059 c-3.805-0.568-7.156-2.749-9.193-5.983C1.591,60.061,3.436,51.925,9.572,48.059z" fill="inherit"/><path d="M9.386,64.524c0.182,0,0.367-0.05,0.532-0.154c0.467-0.294,0.607-0.912,0.313-1.379c-2.248-3.568-1.175-8.299,2.393-10.546 c0.467-0.294,0.607-0.912,0.313-1.379c-0.294-0.466-0.911-0.606-1.379-0.313c-4.5,2.835-5.854,8.804-3.019,13.305 C8.729,64.359,9.054,64.524,9.386,64.524z" fill="inherit"/><path d="M198.56,30.644c-0.626,4.849-6.193-7.56-9.051-6.867s2.745,10.63,1.937,14.25s-4.258,1.844-8.876,2.171 s-9.826-0.096-15.234,2.562c-4.704,2.312-9.528,12.331-10.705,14.903l-2.529,0.609c-1.275,0.307-2.068,1.602-1.761,2.877 c0.307,1.275,1.602,2.068,2.877,1.761l2.421-0.583c1.401,3.113,4.294,7.556,10.205,11.647c5.454,3.774,9.643,5.048,12.428,5.407 l0.158,2.689c0.077,1.31,1.211,2.318,2.521,2.241c1.31-0.077,2.318-1.211,2.241-2.521l-0.173-2.941 c2.762-1.507,12.026-7.124,12.779-15.068c0.886-9.345-3.43-14.836-4.303-18.296c-0.873-3.46-1.008-3.664,1.73-4.968 c2.738-1.304,8.879-0.032,10.634-2.118C207.613,36.314,199.186,25.795,198.56,30.644z M184.671,56.017 c-0.222-1.302-0.767-2.168-1.789-2.925c-1.277-0.947-2.498-0.96-3.189-0.027c-0.383,0.516-0.48,1.182-0.263,1.896 c0.19,0.633,0.315,0.88,1.359,2.852c1.933,3.739,2.119,5.446,0.81,7.211c-1.457,1.965-3.93,2.099-6.774,0.359l-1.118,1.508 l-1.504-1.115l1.118-1.508c-1.514-1.338-2.505-3.087-2.859-5.041l2.914,0.162c0.44,1.956,0.956,2.861,2.148,3.745 c1.22,0.905,2.443,0.858,3.163-0.115c0.397-0.536,0.496-1.262,0.308-2.016c-0.203-0.735-0.369-1.104-1.425-3.178 c-1.751-3.451-1.924-5.055-0.733-6.663c1.353-1.825,3.915-2.018,6.546-0.466l0.912-1.23l1.504,1.115l-0.912,1.23 c1.387,1.213,2.283,2.615,2.742,4.308L184.671,56.017z" fill="inherit"/><path d="M39.256,54.758l38.529-12.251l-9.533-29.981l-7.743,2.462l-2.285-7.185l-23.043,7.327l2.285,7.185l-7.743,2.462 L39.256,54.758z M55.944,12.211l1.221,3.841l-16.353,5.2l-1.221-3.841L55.944,12.211z" fill="inherit"/><path d="M123.097,10.084l2.538,2.538c-0.347,0.414-0.671,0.848-0.983,1.292l-3.114-1.798l-1.704,2.951l3.118,1.8 c-0.227,0.489-0.432,0.988-0.619,1.498l-3.479-0.932l-0.882,3.291l3.478,0.932c-0.092,0.53-0.17,1.063-0.218,1.607h-3.594v3.408 h3.594c0.048,0.544,0.126,1.077,0.218,1.607l-3.478,0.932l0.882,3.291l3.479-0.932c0.187,0.51,0.391,1.009,0.619,1.498l-3.118,1.8 l1.704,2.951l3.114-1.798c0.312,0.443,0.635,0.877,0.983,1.292l-2.538,2.538l2.409,2.409l2.538-2.538 c0.415,0.347,0.848,0.671,1.292,0.983l-1.798,3.114l2.951,1.704l1.8-3.117c0.489,0.227,0.988,0.432,1.498,0.619l-0.932,3.479 l3.291,0.882l0.932-3.478c0.53,0.092,1.063,0.17,1.607,0.218v3.594h3.408v-3.594c0.544-0.048,1.077-0.126,1.607-0.218l0.932,3.478 l3.291-0.882l-0.932-3.479c0.51-0.187,1.009-0.391,1.498-0.619l1.8,3.117l2.951-1.704l-1.798-3.114 c0.443-0.312,0.877-0.635,1.292-0.983l2.538,2.538l2.409-2.409l-2.538-2.538c0.347-0.415,0.671-0.848,0.983-1.292l3.114,1.798 l1.704-2.951l-3.117-1.8c0.227-0.489,0.432-0.988,0.619-1.498l3.479,0.932l0.882-3.291l-3.478-0.932 c0.092-0.53,0.17-1.063,0.218-1.607h3.594v-3.408h-3.594c-0.048-0.544-0.126-1.077-0.218-1.607l3.478-0.932l-0.882-3.291 l-3.479,0.932c-0.187-0.51-0.391-1.009-0.619-1.498l3.117-1.8l-1.704-2.951l-3.114,1.798c-0.312-0.443-0.635-0.877-0.983-1.292 l2.538-2.538l-2.409-2.409l-2.538,2.538c-0.415-0.347-0.848-0.671-1.292-0.983l1.798-3.114l-2.951-1.704l-1.8,3.118 C148,7.302,147.5,7.097,146.991,6.911l0.932-3.479l-3.291-0.882l-0.932,3.478c-0.53-0.092-1.063-0.17-1.607-0.218V2.216h-3.408 V5.81c-0.544,0.048-1.077,0.126-1.607,0.218l-0.932-3.478l-3.291,0.882l0.932,3.479c-0.51,0.187-1.009,0.391-1.498,0.619 l-1.8-3.118l-2.951,1.704l1.798,3.114c-0.443,0.312-0.877,0.635-1.292,0.983l-2.538-2.538L123.097,10.084z M140.389,9.632 c8.469,0,15.334,6.865,15.334,15.334S148.857,40.3,140.389,40.3s-15.334-6.865-15.334-15.334S131.92,9.632,140.389,9.632z" fill="inherit"/><circle cx="140.389" cy="17.449" fill="inherit" r="3.909"/><circle cx="140.389" cy="32.482" fill="inherit" r="3.909"/><circle cx="132.872" cy="24.966" fill="inherit" r="3.909"/><circle cx="147.905" cy="24.966" fill="inherit" r="3.909"/><path d="M167.732,23.48v2.305h1.617c0.052,0.267,0.125,0.526,0.212,0.779l-1.403,0.81l1.153,1.996l1.404-0.811 c0.177,0.203,0.367,0.393,0.57,0.57l-0.811,1.404l1.996,1.153l0.81-1.403c0.253,0.086,0.512,0.159,0.779,0.212v1.617h2.305v-1.617 c0.267-0.052,0.526-0.125,0.779-0.212l0.81,1.403l1.996-1.153l-0.811-1.404c0.203-0.177,0.393-0.367,0.57-0.57l1.404,0.811 l1.153-1.996l-1.403-0.81c0.086-0.253,0.159-0.512,0.212-0.779h1.617V23.48h-1.617c-0.052-0.267-0.125-0.526-0.212-0.779 l1.403-0.81l-1.153-1.996l-1.404,0.811c-0.177-0.203-0.367-0.393-0.57-0.57l0.811-1.404l-1.996-1.153l-0.81,1.403 c-0.253-0.086-0.512-0.159-0.779-0.212v-1.617h-2.305v1.617c-0.267,0.052-0.526,0.125-0.779,0.212l-0.81-1.403l-1.996,1.153 l0.811,1.404c-0.203,0.177-0.393,0.367-0.57,0.57l-1.404-0.811l-1.153,1.996l1.403,0.81c-0.086,0.253-0.159,0.512-0.212,0.779 H167.732z M175.211,20.198c2.449,0,4.435,1.986,4.435,4.435s-1.986,4.435-4.435,4.435c-2.449,0-4.435-1.986-4.435-4.435 S172.762,20.198,175.211,20.198z" fill="inherit"/><circle cx="175.211" cy="24.633" fill="inherit" r="1.353"/><path d="M7.227,28.48v2.305h1.617c0.052,0.267,0.125,0.526,0.212,0.779l-1.403,0.81l1.153,1.996l1.404-0.811 c0.177,0.203,0.367,0.393,0.57,0.57l-0.811,1.404l1.996,1.153l0.81-1.403c0.253,0.086,0.512,0.159,0.779,0.212v1.617h2.305v-1.617 c0.267-0.052,0.526-0.125,0.779-0.212l0.81,1.403l1.996-1.153l-0.811-1.404c0.203-0.177,0.393-0.367,0.57-0.57l1.404,0.811 l1.153-1.996l-1.403-0.81c0.086-0.253,0.159-0.512,0.212-0.779h1.617V28.48h-1.617c-0.052-0.267-0.125-0.526-0.212-0.779 l1.403-0.81l-1.153-1.996l-1.404,0.811c-0.177-0.203-0.367-0.393-0.57-0.57l0.811-1.404l-1.996-1.153l-0.81,1.403 c-0.253-0.087-0.512-0.159-0.779-0.212v-1.617h-2.305v1.617c-0.267,0.052-0.526,0.125-0.779,0.212l-0.81-1.403l-1.996,1.153 l0.811,1.404c-0.203,0.177-0.393,0.367-0.57,0.57l-1.404-0.811l-1.153,1.996l1.403,0.81c-0.086,0.253-0.159,0.512-0.212,0.779 H7.227z M14.706,25.198c2.449,0,4.435,1.986,4.435,4.435s-1.986,4.435-4.435,4.435c-2.449,0-4.435-1.986-4.435-4.435 S12.257,25.198,14.706,25.198z" fill="inherit"/><circle cx="14.706" cy="29.633" fill="inherit" r="1.353"/><path d="M77.813,96.535V94.23h-1.617c-0.052-0.267-0.125-0.526-0.212-0.779l1.403-0.81l-1.153-1.996l-1.404,0.811 c-0.177-0.203-0.367-0.393-0.57-0.57l0.811-1.404l-1.996-1.153l-0.81,1.403c-0.253-0.086-0.512-0.159-0.779-0.212v-1.617h-2.305 v1.617c-0.267,0.052-0.526,0.125-0.779,0.212l-0.81-1.403l-1.996,1.153l0.811,1.404c-0.203,0.177-0.393,0.367-0.57,0.57 l-1.404-0.811l-1.153,1.996l1.403,0.81c-0.086,0.253-0.159,0.512-0.212,0.779h-1.617v2.305h1.617 c0.052,0.267,0.125,0.526,0.212,0.779l-1.403,0.81l1.153,1.996l1.404-0.811c0.177,0.203,0.367,0.393,0.57,0.57l-0.811,1.404 l1.996,1.153l0.81-1.403c0.253,0.086,0.512,0.159,0.779,0.212v1.617h2.305v-1.617c0.267-0.052,0.526-0.125,0.779-0.212l0.81,1.403 l1.996-1.153l-0.811-1.404c0.203-0.177,0.393-0.367,0.57-0.57l1.404,0.811l1.153-1.996l-1.403-0.81 c0.086-0.253,0.159-0.512,0.212-0.779H77.813z M70.334,99.818c-2.449,0-4.435-1.986-4.435-4.435s1.986-4.435,4.435-4.435 c2.449,0,4.435,1.986,4.435,4.435S72.783,99.818,70.334,99.818z" fill="inherit"/><circle cx="70.334" cy="95.383" fill="inherit" r="1.353"/><path d="M130.239,66.936l0.81-1.403c0.253,0.086,0.512,0.159,0.779,0.212v1.617h2.305v-1.617c0.267-0.052,0.526-0.125,0.779-0.212 l0.81,1.403l1.996-1.153l-0.811-1.404c0.203-0.177,0.393-0.367,0.57-0.57l1.404,0.811l1.153-1.996l-1.403-0.81 c0.086-0.253,0.159-0.512,0.212-0.779h1.617V58.73h-1.617c-0.052-0.267-0.125-0.526-0.212-0.779l1.403-0.81l-1.153-1.996 l-1.404,0.811c-0.177-0.203-0.367-0.393-0.57-0.57l0.811-1.404l-1.996-1.153l-0.81,1.403c-0.253-0.086-0.512-0.159-0.779-0.212 v-1.617h-2.305v1.617c-0.267,0.052-0.526,0.125-0.779,0.212l-0.81-1.403l-1.996,1.153l0.811,1.404 c-0.203,0.177-0.393,0.367-0.57,0.57l-1.404-0.811l-1.153,1.996l1.403,0.81c-0.086,0.253-0.159,0.512-0.212,0.779h-1.617v2.305 h1.617c0.052,0.267,0.125,0.526,0.212,0.779l-1.403,0.81l1.153,1.996l1.404-0.811c0.177,0.203,0.367,0.393,0.57,0.57l-0.811,1.404 L130.239,66.936z M128.546,59.883c0-2.449,1.986-4.435,4.435-4.435s4.435,1.986,4.435,4.435s-1.986,4.435-4.435,4.435 S128.546,62.332,128.546,59.883z" fill="inherit"/><circle cx="132.981" cy="59.883" fill="inherit" r="1.353"/><path d="M82.151 12.229H85.178V28.624H82.151z" fill="inherit" transform="rotate(-4.393 83.716 20.437)"/><path d="M87.472 0.958H90.499V28.198999999999998H87.472z" fill="inherit" transform="rotate(-4.393 89.041 14.585)"/><path d="M93.393 5.302H96.42V27.751H93.393z" fill="inherit" transform="rotate(-4.399 94.845 16.519)"/><path d="M98.946 0.076H101.973V27.317H98.946z" fill="inherit" transform="rotate(-4.393 100.523 13.703)"/><path d="M105.002 7.946H108.029V26.863H105.002z" fill="inherit" transform="rotate(-4.393 106.581 17.413)"/><path d="M80.006 29.728H111.913V30.737000000000002H80.006z" fill="inherit" transform="rotate(-4.393 96.023 30.25)"/><path d="M161.708,77.74c-1.335,0-2.445,0.964-2.681,2.231h-3.711c-0.236-1.267-1.345-2.231-2.68-2.231 c-0.61,0-1.167,0.208-1.622,0.547l-5.146-4.766c0.267-0.422,0.427-0.918,0.427-1.452c0-1.506-1.226-2.731-2.731-2.731 s-2.73,1.225-2.73,2.731c0,0.535,0.16,1.03,0.427,1.452l-5.146,4.766c-0.455-0.339-1.013-0.547-1.622-0.547 c-1.506,0-2.73,1.225-2.73,2.731s1.225,2.731,2.73,2.731s2.731-1.225,2.731-2.731c0-0.535-0.16-1.031-0.427-1.453l5.146-4.766 c0.455,0.339,1.013,0.547,1.622,0.547c0.61,0,1.167-0.208,1.622-0.547l5.146,4.766c-0.267,0.422-0.427,0.917-0.427,1.452 c0,1.506,1.225,2.731,2.73,2.731c1.335,0,2.444-0.964,2.68-2.231h3.711c0.236,1.267,1.346,2.231,2.681,2.231 c0.569,0,1.097-0.176,1.534-0.474l5.295,5.338c-0.306,0.441-0.488,0.975-0.488,1.551c0,1.506,1.226,2.731,2.731,2.731 s2.73-1.225,2.73-2.731s-1.225-2.731-2.73-2.731c-0.569,0-1.096,0.175-1.534,0.474l-5.295-5.338 c0.306-0.441,0.488-0.975,0.488-1.551C164.439,78.966,163.214,77.74,161.708,77.74z M159.977,80.471 c0-0.955,0.776-1.731,1.731-1.731c0.954,0,1.73,0.776,1.73,1.731s-0.776,1.731-1.73,1.731 C160.753,82.202,159.977,81.426,159.977,80.471z M154.366,80.471c0,0.955-0.776,1.731-1.73,1.731s-1.73-0.776-1.73-1.731 s0.776-1.731,1.73-1.731S154.366,79.517,154.366,80.471z M143.564,73.799c-0.954,0-1.73-0.776-1.73-1.731s0.776-1.731,1.73-1.731 c0.955,0,1.731,0.776,1.731,1.731S144.519,73.799,143.564,73.799z M136.223,80.471c0,0.955-0.776,1.731-1.731,1.731 c-0.954,0-1.73-0.776-1.73-1.731s0.776-1.731,1.73-1.731C135.447,78.74,136.223,79.517,136.223,80.471z M172.511,89.618 c0,0.955-0.776,1.731-1.73,1.731c-0.955,0-1.731-0.776-1.731-1.731s0.776-1.731,1.731-1.731 C171.735,87.887,172.511,88.663,172.511,89.618z" fill="inherit"/><path d="M77.604,52.439c-1.414,0.559-2.109,2.164-1.551,3.578c0.428,1.082,1.469,1.744,2.568,1.744c0.336,0,0.679-0.062,1.01-0.193 c0.685-0.271,1.224-0.792,1.517-1.467c0.225-0.52,0.281-1.083,0.173-1.627l3.5-1.383c0.509,0.813,1.401,1.297,2.338,1.297 c0.336,0,0.679-0.062,1.01-0.193c0.685-0.271,1.224-0.792,1.517-1.467c0.225-0.52,0.281-1.083,0.173-1.627l3.501-1.383 c0.508,0.813,1.4,1.297,2.338,1.297c0.336,0,0.678-0.062,1.009-0.193c0.685-0.271,1.224-0.792,1.517-1.467 c0.225-0.52,0.281-1.083,0.173-1.628l3.5-1.383c0.293,0.471,0.719,0.844,1.239,1.07c0.352,0.153,0.724,0.229,1.096,0.229 c0.343,0,0.686-0.064,1.014-0.194c0.686-0.271,1.225-0.792,1.518-1.467c0.225-0.52,0.281-1.083,0.172-1.628l3.5-1.383 c0.293,0.471,0.719,0.844,1.239,1.07c0.352,0.153,0.724,0.229,1.096,0.229c0.343,0,0.686-0.064,1.014-0.194 c1.414-0.559,2.109-2.164,1.551-3.578c-0.271-0.685-0.792-1.224-1.468-1.517c-0.675-0.292-1.425-0.305-2.109-0.034 c-0.686,0.271-1.224,0.792-1.517,1.467c-0.225,0.52-0.281,1.083-0.173,1.627l-3.5,1.383c-0.293-0.471-0.719-0.844-1.239-1.07 c-0.675-0.292-1.426-0.304-2.11-0.034c-0.685,0.271-1.224,0.792-1.517,1.467c-0.225,0.52-0.281,1.083-0.173,1.627l-3.5,1.383 c-0.293-0.471-0.718-0.844-1.238-1.07c-0.676-0.292-1.425-0.304-2.11-0.034c-0.685,0.271-1.224,0.792-1.517,1.467 c-0.225,0.52-0.281,1.083-0.173,1.628l-3.501,1.384c-0.691-1.105-2.093-1.601-3.347-1.105c-1.255,0.495-1.939,1.815-1.688,3.094 l-3.503,1.384C80.261,52.438,78.86,51.942,77.604,52.439z M80.253,54.358c0.172,0.437,0.165,0.914-0.022,1.345 c-0.187,0.431-0.53,0.763-0.967,0.936c-0.899,0.357-1.924-0.087-2.28-0.988c-0.356-0.901,0.088-1.924,0.989-2.281 c0.211-0.083,0.429-0.123,0.644-0.123C79.316,53.246,79.98,53.668,80.253,54.358z M86.51,49.995 c0.211-0.083,0.429-0.123,0.644-0.123c0.701,0,1.364,0.421,1.637,1.111v0c0.172,0.436,0.165,0.914-0.022,1.344 c-0.187,0.431-0.53,0.763-0.966,0.936c-0.901,0.356-1.924-0.087-2.281-0.988C85.165,51.374,85.608,50.351,86.51,49.995z M94.081,47.557c0.187-0.431,0.53-0.763,0.966-0.936c0.209-0.083,0.428-0.124,0.646-0.124c0.237,0,0.475,0.048,0.699,0.146 c0.431,0.187,0.763,0.53,0.936,0.966v0c0.172,0.437,0.165,0.914-0.022,1.345c-0.187,0.431-0.53,0.763-0.966,0.936 c-0.901,0.355-1.924-0.087-2.281-0.989C93.886,48.466,93.894,47.988,94.081,47.557z M102.618,44.184 c0.187-0.431,0.529-0.763,0.966-0.936c0.21-0.083,0.429-0.124,0.646-0.124c0.238,0,0.475,0.049,0.699,0.146 c0.431,0.187,0.763,0.53,0.936,0.966c0.172,0.437,0.164,0.915-0.022,1.345s-0.53,0.763-0.967,0.936 c-0.436,0.172-0.912,0.166-1.345-0.022c-0.431-0.187-0.763-0.53-0.936-0.966C102.424,45.092,102.432,44.614,102.618,44.184z M111.156,40.81c0.188-0.431,0.53-0.763,0.967-0.936c0.21-0.083,0.428-0.124,0.646-0.124c0.237,0,0.474,0.049,0.698,0.146 c0.431,0.187,0.763,0.53,0.936,0.966c0.355,0.901-0.088,1.924-0.988,2.281c-0.436,0.172-0.913,0.165-1.345-0.022 c-0.431-0.187-0.763-0.53-0.936-0.967C110.961,41.718,110.969,41.241,111.156,40.81z" fill="inherit"/><path d="M143.148 90.173L139.823 91.279 138.649 87.748 136.007 88.627 137.181 92.158 133.855 93.264 134.719 95.86 138.045 94.754 139.203 98.238 141.845 97.36 140.686 93.875 144.011 92.77z" fill="inherit"/><path d="M154.576 95.697L155.271 92.899 157.941 93.563 158.46 91.478 155.79 90.814 156.494 87.979 154.372 87.452 153.668 90.287 150.997 89.623 150.479 91.708 153.15 92.372 152.455 95.17z" fill="inherit"/><circle cx="45.592" cy="64.428" fill="inherit" r="2.869" transform="rotate(-16.021 45.593 64.429)"/><path d="M42.758,70.967l3.934,7.203c0.185,0.645,0.689,1.113,1.291,1.292l2.444,8.513c0.281,0.979,3.84-0.043,3.559-1.022 l-2.444-8.513c0.416-0.471,0.594-1.135,0.409-1.78l-0.487-8.193c-0.268-0.934-1.848-1.309-3.51-0.831L45.292,68.4 C43.63,68.878,42.49,70.033,42.758,70.967z" fill="inherit"/><circle cx="55.664" cy="61.536" fill="inherit" r="2.869" transform="rotate(-16.021 55.666 61.537)"/><path d="M58.055,76.569l2.445,8.513c0.281,0.979,3.84-0.043,3.559-1.022l-2.445-8.513c0.416-0.471,0.594-1.135,0.409-1.78 l-0.487-8.192c-0.268-0.934-1.848-1.309-3.51-0.831l-2.661,0.764c-1.662,0.477-2.803,1.633-2.534,2.567l3.934,7.203 C56.95,75.922,57.453,76.39,58.055,76.569z" fill="inherit"/><circle cx="65.737" cy="58.644" fill="inherit" r="2.869" transform="rotate(-16.021 65.738 58.644)"/><path d="M62.903,65.182l3.934,7.203c0.185,0.645,0.689,1.113,1.29,1.292l2.445,8.513c0.281,0.979,3.84-0.043,3.559-1.022 l-2.445-8.513c0.416-0.471,0.594-1.135,0.409-1.78l-0.487-8.192c-0.268-0.934-1.848-1.309-3.51-0.831l-2.661,0.764 C63.775,63.093,62.635,64.248,62.903,65.182z" fill="inherit"/></g></svg>