<?xml version="1.0" encoding="UTF-8" standalone="no"?><svg xmlns="http://www.w3.org/2000/svg" xmlns:xlink="http://www.w3.org/1999/xlink" fill="#000000" height="359.3" preserveAspectRatio="xMidYMid meet" version="1" viewBox="-7.6 -1.5 389.0 359.3" width="389" zoomAndPan="magnify"><g><g id="change1_1"><path clip-rule="evenodd" d="M211.7,340.9c28.8-18.7,58.4-20.9,78.5-21.6c20.2-0.7,29.5-32.4,31.7-49.7c2.2-17.3,28.8-21.6,40.3-36.7 c11.5-15.1-9.4-44.7-12.2-62c-2.9-17.3,12.2-33.1,4.3-44.7c-7.9-11.5-27.4-15.8-28.1-28.1c-0.7-12.2-6.5-42.5-43.2-49 c-36.7-6.5-43.2-38.9-61.2-41.1c-18-2.2-36.7,13.7-53.3,7.9c-16.6-5.8-33.1,10.1-49,19.5c-15.8,9.4-74.9-2.2-80,30.3 c-5,32.4,10.8,32.4-14.4,66.3c-25.2,33.9-20.9,55.5-3.6,74.2c17.3,18.7-5.8,51.1,20.2,67c25.9,15.8,38.2,19.5,43.2,34.6 c3.4,10.1,8.6,15.3,15,18.1c11.1,4.9,25.8,2.4,40.2,6.2c15.4,4.1,27.5,14.2,41.7,16.5C190.5,350,200,348.5,211.7,340.9z M1.9,238.3 c-0.5,3.5,1.4,7.7,5.2,8c7.3,0.6,10.1-4.8,8.1-8.8C12.8,232.8,2.8,231.2,1.9,238.3z M252.4,5.4c-3.7,7.3,9.2,12.4,15,11.4 c10.8-1.7,10-9.8,4.4-13.9C266.2-1.2,256-1.5,252.4,5.4z" fill="#00c2cb" fill-opacity="0.2" fill-rule="evenodd"/></g><g id="change2_1"><path clip-rule="evenodd" d="M212.7,9.3c30,19.5,60.7,21.7,81.7,22.5c21,0.7,30.7,33.7,33,51.7c2.2,18,30,22.5,42,38.2 c12,15.7-9.7,46.5-12.7,64.5c-3,18,12.7,34.5,4.5,46.5c-8.2,12-28.5,16.5-29.2,29.2s-6.7,44.2-45,51s-45,40.5-63.7,42.7 c-18.7,2.2-38.2-14.2-55.5-8.2c-17.2,6-34.5-10.5-51-20.2c-16.5-9.7-78,2.2-83.2-31.5c-5.2-33.7,11.2-33.7-15-69 s-21.7-57.7-3.7-77.2c18-19.5-6-53.2,21-69.7s39.7-20.2,45-36c3.5-10.5,8.9-15.9,15.6-18.8c11.6-5.1,26.9-2.5,41.9-6.4 c16.1-4.2,28.6-14.7,43.4-17.2C190.6-0.1,200.6,1.5,212.7,9.3L212.7,9.3z M287.8,327.8c0.2,4.9,5.1,4.8,7.4,2.1 c2-2.3,0.4-4.7-1.5-5.6C291.1,323,287.6,324,287.8,327.8L287.8,327.8z M259.6,335.9c-3.9,10.9,11.4,9.2,16.5,6.1 c2.7-1.6,5.2-4.3,6.1-7C285.5,324,263.4,325.5,259.6,335.9z" fill="#38b6ff" fill-opacity="0.2" fill-rule="evenodd"/></g><linearGradient gradientTransform="matrix(.02835 0 0 -.02835 -48.583 -57.029)" gradientUnits="userSpaceOnUse" id="a" x1="6491.841" x2="12470.592" xlink:actuate="onLoad" xlink:show="other" xlink:type="simple" y1="-6213.183" y2="-13091.389"><stop offset="0" stop-color="#38b6ff"/><stop offset="1" stop-color="#010333"/></linearGradient><path clip-rule="evenodd" d="M81.3,283c58.1,58.1,152.3,58.1,210.4,0s58.1-152.3,0-210.4c-58.1-58.1-152.3-58.1-210.4,0 C23.2,130.7,23.2,224.9,81.3,283z" fill="url(#a)" fill-rule="evenodd"/><linearGradient gradientTransform="matrix(.02835 0 0 -.02835 -48.583 -57.029)" gradientUnits="userSpaceOnUse" id="b" x1="6879.561" x2="9283.932" xlink:actuate="onLoad" xlink:show="other" xlink:type="simple" y1="-2883.267" y2="-7247.889"><stop offset="0" stop-color="#38b6ff"/><stop offset="1" stop-color="#010333"/></linearGradient><path clip-rule="evenodd" d="M62.9,94.9c0,0,50.2,15.2,112.1,15.6c61.9,0.4,125-29,125-29s-18.9-26.9-41.2-38.3s-34.3,6.6-49.1,0.4 c-14.8-6.2-23.1-11.8-36.2-8.6c-3.9,0.9-7.2,1.1-10,0.9c-18.8-1.5-13.3-8.3-37,1C108.3,44,82.3,60.4,62.9,94.9z" fill="url(#b)" fill-rule="evenodd"/><linearGradient gradientTransform="matrix(.02835 0 0 -.02835 -48.583 -57.029)" gradientUnits="userSpaceOnUse" id="c" x1="7427.573" x2="8693.183" xlink:actuate="onLoad" xlink:show="other" xlink:type="simple" y1="-4893.595" y2="-9041.976"><stop offset="0" stop-color="#38b6ff"/><stop offset="1" stop-color="#010333"/></linearGradient><path clip-rule="evenodd" d="M323.2,118.9c-91,47.6-186,63.6-285.1,48c-4.7-49.6,28-88.4,33.7-88.6c5.6-0.2,4.5,3,9,9 c4.5,6,23.4-10.7,34.3-4.9c10.9,5.8,16.3,23.4,32.2,18c15.9-5.4,24.4,0.6,41.2,4.3c16.9,3.7,31.1-24.4,44.2-30.4 c13.1-6,33.9,10.1,40.1,7.7c6.2-2.4,16.1-16.5,27.7-8.2S323.2,118.9,323.2,118.9L323.2,118.9z" fill="url(#c)" fill-rule="evenodd"/><linearGradient gradientTransform="matrix(.02835 0 0 -.02835 -48.583 -57.029)" gradientUnits="userSpaceOnUse" id="d" x1="7622.427" x2="9499.024" xlink:actuate="onLoad" xlink:show="other" xlink:type="simple" y1="-6045.473" y2="-11177.445"><stop offset="0" stop-color="#38b6ff"/><stop offset="1" stop-color="#010333"/></linearGradient><path clip-rule="evenodd" d="M334.9,189.1c0,0,6.5-37.8-3.6-71.1s-34.9-5.2-44.2,3.7s-30.4,3.4-48.7,2.2c-18.4-1.1-39.4,39.4-60,32.6 c-20.6-6.7-31.9-17.6-55.5-3.7c-23.6,13.9-43.5,4.5-55.9-5.6c-12.4-10.1-26.2-10.9-33.4-0.4c-7.1,10.5,4.3,62.8,9.5,70.6 C48.2,225.2,181.3,258.5,334.9,189.1z" fill="url(#d)" fill-rule="evenodd"/><linearGradient gradientTransform="matrix(.02835 0 0 -.02835 -48.583 -57.029)" gradientUnits="userSpaceOnUse" id="e" x1="8041.477" x2="9855.049" xlink:actuate="onLoad" xlink:show="other" xlink:type="simple" y1="-7762.92" y2="-12857.068"><stop offset="0" stop-color="#38b6ff"/><stop offset="1" stop-color="#010333"/></linearGradient><path clip-rule="evenodd" d="M79.5,281.2c0,0-50.4-48.6-45.6-66.9s21-3.7,28.9-0.4s28.9-24,48.4-10.1c19.5,13.9,35.6,25.1,52.5,8.6 c16.9-16.5,33.7-16.9,49.9-6.4c16.1,10.5,33-16.5,53.6-14.6c20.6,1.9,37.5-6.4,46.1-18.4s29.2-26.6,30-15.4 c0.7,11.2-7.4,60.9-18.5,75.2C313.6,247.3,158.7,288.5,79.5,281.2z" fill="url(#e)" fill-rule="evenodd"/><linearGradient gradientTransform="matrix(.02835 0 0 -.02835 -48.583 -57.029)" gradientUnits="userSpaceOnUse" id="f" x1="8433.117" x2="10077.364" xlink:actuate="onLoad" xlink:show="other" xlink:type="simple" y1="-9887.873" y2="-14407.453"><stop offset="0" stop-color="#38b6ff"/><stop offset="1" stop-color="#010333"/></linearGradient><path clip-rule="evenodd" d="M70.6,281.3c70.7,72,187.7,59.8,243.5-15.9c6.1-8.4,26.6-37.3,17.6-47.7c-2.5-2.9-7.3-4.3-16.6-1.2 c-23.2,7.9-34.9,36-57,25.5c-22.1-10.5-36.4-7.5-43.9,3.7c-7.5,11.2-27.7,3-48-1.5c-15.9-3.5-18.4,11.2-25.4,14.6 c-5.4,2.6-20.1-6.9-28.7-8.2c-16.4-2.5-5.8,12.3-20.6,14.1c-10.7,1.4-21.1-8.8-26.2-2C62.5,266.3,62.8,272.8,70.6,281.3L70.6,281.3 z" fill="url(#f)" fill-rule="evenodd"/><g id="change3_1"><path clip-rule="evenodd" d="M109.6,280.5c-2.1,9.2,11.8,16.6,20.4,15.7c9.3-1,14.9-8.9,13.4-15.2c-1.1-4.4-5.5-8-14.4-8 C123.6,272.9,111.1,274.1,109.6,280.5z M127.5,54.9c11.9,4.7,28.1-7.6,17.3-13.7C133.7,34.8,118.5,51.4,127.5,54.9z M56,190.7 c0.8,9.1,9.4,10.5,14.4,7.3c5.3-3.4,6.9-11.7-2.4-14.5C62.5,181.8,55.3,183.5,56,190.7L56,190.7z M141.7,158.3 c-12.9-0.6-19.9,10.7-17.2,18c2.6,7.3,9.6,12.6,20.1,11.8C170.2,186.3,162.6,159.2,141.7,158.3z M113.5,176.2 c2.7-1.5,4.5-5.1,2.1-7.6c-1.8-1.9-5.5-2.3-8-1.2C101.3,170.2,107.8,179.3,113.5,176.2z M148.8,291.9c-3.4,1.3-1.8,4.2,1,5.5 c5.1,2.4,9.7-2.8,5.8-5C153.8,291.3,150.8,291.1,148.8,291.9z" fill="#010333" fill-opacity="0.549" fill-rule="evenodd"/></g><g id="change2_2"><path clip-rule="evenodd" d="M248.8,217.2c4.9,5.6,16,5.6,24.2,2.1c7.8-3.4,8.5-7.3,7.7-10.6c-1.1-4.7-7.2-8-16.5-6.2 C253.6,204.5,244.2,212.1,248.8,217.2L248.8,217.2z M300.3,136.3c3.6,1.6,6.3-1,5.8-3.4c-0.6-2.8-3.2-4.4-5.4-3.8 C297.7,130,295.4,134.1,300.3,136.3L300.3,136.3z M307,121.1c2.6,5.3,11.3,6.3,14.9,5c3.7-1.4,4.2-5.1,2.9-8.7 c-1.5-4-4.3-5.9-7.4-6.3C311.2,110.3,304.2,115.5,307,121.1z M240.5,54.2c1.9,2.1,6.5,3.7,10,3.5c4.5-0.2,5.5-4.8,3.5-7.9 C250,43.4,236.1,49.3,240.5,54.2z M184.8,121c0.6-3.4,0.3-5.8-0.8-7.6c-3-4.9-9.9-5.3-15-3.2c-9.5,4-7.6,11.5-2,14.9 C173.1,128.9,183.4,128.2,184.8,121z" fill="#38b6ff" fill-opacity="0.549" fill-rule="evenodd"/></g><g id="change2_3"><path clip-rule="evenodd" d="M290.5,208.9c2.3,3.4,7.5,3.4,11.3,1.3c3.6-2,4-4.5,3.6-6.5c-0.5-2.8-3.4-4.9-7.7-3.8 C292.8,201.1,288.4,205.7,290.5,208.9z" fill="#38b6ff" fill-opacity="0.549" fill-rule="evenodd"/></g></g></svg>