<?xml version="1.0" encoding="UTF-8" standalone="no"?><svg xmlns="http://www.w3.org/2000/svg" xmlns:xlink="http://www.w3.org/1999/xlink" data-name="Layer 1" fill="#001f53" height="97.1" preserveAspectRatio="xMidYMid meet" version="1" viewBox="6.9 6.8 97.4 97.1" width="97.4" zoomAndPan="magnify"><g id="change1_1"><path d="M18.284,66.3a1.913,1.913,0,0,0-2.53.97l-.72,1.61a42.72,42.72,0,0,1-1.93-12.77,43.362,43.362,0,0,1,8.68-25.92,42.9,42.9,0,0,1,27.66-16.6,1.923,1.923,0,0,0-.59-3.8,46.749,46.749,0,0,0-30.13,18.08,47.156,47.156,0,0,0-9.46,28.24,46.638,46.638,0,0,0,2.22,14.28l-1.79-.83a1.922,1.922,0,1,0-1.609,3.49l5.949,2.74a1.872,1.872,0,0,0,.8.18,1.907,1.907,0,0,0,1.759-1.14l2.67-6A1.917,1.917,0,0,0,18.284,66.3Z" fill="inherit"/></g><g id="change1_2"><path d="M99.774,38.932A46.933,46.933,0,0,0,69.2,11.082l.92-.42a1.92,1.92,0,0,0-1.6-3.49l-5.93,2.71-.07.03-.009.006a1.853,1.853,0,0,0-1.261,1.494,1.9,1.9,0,0,0,.64,1.75l2.37,5.31a1.934,1.934,0,0,0,1.76,1.14,1.963,1.963,0,0,0,.781-.17,1.924,1.924,0,0,0,.969-2.54l-1.13-2.53A43.074,43.074,0,0,1,95.8,72.912a1.912,1.912,0,0,0,1.02,2.52,1.808,1.808,0,0,0,.75.16,1.933,1.933,0,0,0,1.77-1.17,47.037,47.037,0,0,0,.439-35.49Z" fill="inherit"/></g><g id="change1_3"><path d="M92.034,85.452a1.553,1.553,0,0,0-.03-.31v-.02c-.02-.06-.03-.12-.05-.18a1.813,1.813,0,0,0-.49-.86,1.923,1.923,0,0,0-1.379-.55l-6.561.1a1.92,1.92,0,0,0,.031,3.84h.02l2.069-.03a42.991,42.991,0,0,1-63.18-4.55,1.922,1.922,0,0,0-3.01,2.39,46.844,46.844,0,0,0,68.75,5.03v1.7a1.913,1.913,0,0,0,1.92,1.91h.01A1.906,1.906,0,0,0,92.045,92l-.011-6.35Z" fill="inherit"/></g><g id="change1_4"><path d="M61.475,88.077c-.108.065-.221.121-.332.181a26.955,26.955,0,0,0,4.214-.833,30.963,30.963,0,0,0,13.218-7.443c-.229-.229-.461-.455-.7-.675a30.332,30.332,0,0,0-7.355-5.083C68.507,80.9,65.315,85.905,61.475,88.077Z" fill="inherit"/></g><g id="change1_5"><path d="M56.421,58.2H43.014a58.645,58.645,0,0,0,1.77,13.942c.074-.031.145-.067.219-.1.668-.283,1.414-.561,2.273-.847.137-.047.281-.092.427-.137l.338-.107c.351-.108.675-.2,1.006-.285l.186-.05a32.437,32.437,0,0,1,7.188-.964Z" fill="inherit"/></g><g id="change1_6"><path d="M56.421,71.151a30.918,30.918,0,0,0-6.808.915l-.176.048c-.314.085-.623.168-.941.265l-.35.111c-.131.041-.26.081-.389.125-.828.275-1.537.54-2.176.81-.132.055-.26.116-.391.173,2.386,8.083,6.5,13.6,11.231,14.135Z" fill="inherit"/></g><g id="change1_7"><path d="M43.8,74.239a29.924,29.924,0,0,0-8.042,5.748,30.756,30.756,0,0,0,17.411,8.275C49.184,86.2,45.862,81.12,43.8,74.239Z" fill="inherit"/></g><g id="change1_8"><path d="M52.968,28.5c-.393.279-.712.529-1,.78a22.623,22.623,0,0,0-5.764,9.1c-.362.944-.683,1.934-.985,2.942a30.272,30.272,0,0,0,11.2,2.415V27.155a7.418,7.418,0,0,0-2.612.83c-.165.09-.33.184-.5.293-.043.032-.115.077-.186.121Z" fill="inherit"/></g><g id="change1_9"><path d="M34.668,78.907l.028.029a31.432,31.432,0,0,1,8.682-6.168A59.932,59.932,0,0,1,41.515,58.2H26.083A30.941,30.941,0,0,0,34.668,78.907Z" fill="inherit"/></g><g id="change1_10"><path d="M48.258,27.652c-.034.013-.1.035-.174.056l-.13.041c-.178.053-.3.088-.429.133-.806.27-1.553.547-2.233.827a30.987,30.987,0,0,0-9.53,6.216,30.312,30.312,0,0,0,8.078,5.764c.3-.974.611-1.93.962-2.846a24.08,24.08,0,0,1,6.181-9.7,13.863,13.863,0,0,1,1.121-.874c.077-.055.149-.1.22-.144l.152-.1c.23-.146.422-.255.624-.365.041-.022.082-.036.123-.057a31.8,31.8,0,0,0-3.793.716C49.04,27.42,48.664,27.527,48.258,27.652Z" fill="inherit"/></g><g id="change1_11"><path d="M56.421,45.234A31.8,31.8,0,0,1,44.8,42.775,57.578,57.578,0,0,0,43.021,56.7h13.4Z" fill="inherit"/></g><g id="change1_12"><path d="M61.116,26.611c2.581,1.338,4.952,3.985,6.9,7.782A37.515,37.515,0,0,1,70.5,40.665a30.272,30.272,0,0,0,8.075-5.742c-.065-.062-.126-.128-.191-.188A30.92,30.92,0,0,0,61.116,26.611Z" fill="inherit"/></g><g id="change1_13"><path d="M43.411,42.151a31.769,31.769,0,0,1-8.7-6.17l-.029.029a27.4,27.4,0,0,0-1.837,2.1A30.583,30.583,0,0,0,26.1,56.7H41.521A58.883,58.883,0,0,1,43.411,42.151Z" fill="inherit"/></g><g id="change1_14"><path d="M79.638,78.941l.035-.034A30.836,30.836,0,0,0,88.256,58.2H72.822c-.023,1.994-.12,3.972-.319,5.88a56.068,56.068,0,0,1-1.571,8.681A31.747,31.747,0,0,1,78.9,78.21C79.152,78.444,79.392,78.7,79.638,78.941Z" fill="inherit"/></g><g id="change1_15"><path d="M60.722,86.78c3.509-1.984,6.5-6.817,8.408-13.2a30.169,30.169,0,0,0-11.209-2.44V87.732c.238-.028.479-.069.729-.124A6.866,6.866,0,0,0,60.722,86.78Z" fill="inherit"/></g><g id="change1_16"><path d="M88.236,55.793A30.979,30.979,0,0,0,79.674,36c-.014-.013-.028-.026-.041-.04a31.726,31.726,0,0,1-8.714,6.153,58.776,58.776,0,0,1,1.905,13.668c0,.3.006.608.009.911H88.258C88.25,56.4,88.247,56.094,88.236,55.793Z" fill="inherit"/></g><g id="change1_17"><path d="M71.011,63.921c.193-1.858.288-3.783.311-5.725h-13.4V69.645a31.7,31.7,0,0,1,11.613,2.482A54.163,54.163,0,0,0,71.011,63.921Z" fill="inherit"/></g><g id="change1_18"><path d="M71.324,55.817a57.438,57.438,0,0,0-1.789-13.065,31.574,31.574,0,0,1-3.966,1.369,27.96,27.96,0,0,1-4.9.937c-.909.1-1.831.152-2.747.174V56.7H71.333C71.33,56.4,71.329,56.107,71.324,55.817Z" fill="inherit"/></g><g id="change1_19"><path d="M65.167,42.676a30.271,30.271,0,0,0,3.96-1.384,36.18,36.18,0,0,0-2.446-6.212c-2.448-4.777-5.534-7.555-8.76-7.928v16.58c.862-.021,1.729-.069,2.59-.165A26.564,26.564,0,0,0,65.167,42.676Z" fill="inherit"/></g></svg>