<?xml version="1.0" encoding="UTF-8" standalone="no"?><svg xmlns="http://www.w3.org/2000/svg" xmlns:xlink="http://www.w3.org/1999/xlink" fill="#000000" height="300" preserveAspectRatio="xMidYMid meet" version="1" viewBox="0.0 0.0 300.0 300.0" width="300" zoomAndPan="magnify"><g id="change1_1"><path d="M300,151H154.9l133.3,57.3l-0.8,1.8l-133-57.2l102.4,102.4l-1.4,1.4L152.7,154.1L206.5,289l-1.9,0.7 L151,155.2V300h-2V154.9L91.7,288.2l-1.8-0.8l57.2-133L44.6,256.8l-1.4-1.4l102.6-102.6L11,206.5l-0.7-1.9L144.8,151H0v-2h145.1 L11.8,91.7l0.8-1.8l133,57.2L43.2,44.6l1.4-1.4l102.6,102.6L93.5,11l1.9-0.7L149,144.8V0h2v145.1l57.3-133.3l1.8,0.8l-57.2,133 L255.4,43.2l1.4,1.4L154.1,147.3L289,93.5l0.7,1.9L155.2,149H300V151z" fill="#001f53"/></g></svg>