<?xml version="1.0" encoding="UTF-8" standalone="no"?><svg xmlns="http://www.w3.org/2000/svg" xmlns:xlink="http://www.w3.org/1999/xlink" fill="#000000" height="322.6" preserveAspectRatio="xMidYMid meet" version="1" viewBox="-5.3 -14.4 403.7 322.6" width="403.7" zoomAndPan="magnify"><g><linearGradient gradientTransform="matrix(.02835 0 0 -.02835 -46.64 -89.084)" gradientUnits="userSpaceOnUse" id="a" x1="2350.698" x2="11478.5" xlink:actuate="onLoad" xlink:show="other" xlink:type="simple" y1="-5864.8" y2="-9622.787"><stop offset="0" stop-color="#38b6ff"/><stop offset="1" stop-color="#5ce1e6"/></linearGradient><path clip-rule="evenodd" d="M85.5,250.8c57.4,57.4,150.4,57.4,207.8,0c57.4-57.4,57.4-150.4,0-207.8c-57.4-57.4-150.4-57.4-207.8,0 C28.2,100.4,28.2,193.4,85.5,250.8L85.5,250.8z" fill="url(#a)" fill-opacity="0.2" fill-rule="evenodd"/><g id="change1_1"><path clip-rule="evenodd" d="M92.9,243.5c53.3,53.3,139.8,53.3,193.1,0c53.3-53.3,53.3-139.8,0-193.1C232.7-3,146.2-3,92.9,50.4 C39.5,103.7,39.5,190.2,92.9,243.5z" fill="#38b6ff" fill-opacity="0.2" fill-rule="evenodd"/></g><linearGradient gradientTransform="matrix(.02835 0 0 -.02835 -46.64 -89.084)" gradientUnits="userSpaceOnUse" id="b" x1="11464.728" x2="5671.175" xlink:actuate="onLoad" xlink:show="other" xlink:type="simple" y1="-12452.452" y2="-4830.002"><stop offset="0" stop-color="#38b6ff"/><stop offset="1" stop-color="#5ce1e6"/></linearGradient><path clip-rule="evenodd" d="M96.3,240c51.4,51.4,134.8,51.4,186.2,0s51.4-134.8,0-186.2c-51.4-51.4-134.8-51.4-186.2,0 C44.9,105.2,44.9,188.6,96.3,240z" fill="url(#b)" fill-rule="evenodd"/><g id="change2_1"><path clip-rule="evenodd" d="M57.8,150.2c4.7-2.9,11.1-5.2,18.4-3.3c13.9,3.7,18.3-29.2,42.1-28.5s30.5-31.9,50.8-31.9 c20.2,0,39.8-6.3,48.4-22.6c8.6-16.3,30.1-24.7,52.7-21c-14-10.9-29.7-18.6-46.1-23.1c-0.1,0.2-8.5,16.9-33.2,27.1 c-24.9,10.3-53.4,9-70.3,29.9c-16.9,20.9-51.9,17.4-52,17.4C60.9,112.1,57.3,131.2,57.8,150.2L57.8,150.2z M137.9,268.1 c48,20.4,105.5,11,144.6-28.1c25-25,37.9-57.6,38.5-90.4c-0.1,1.2-3.1,22.9-26.5,29.5c-24.1,6.7-25.9,43.5-43.8,47.8 c-17.9,4.3-44.1-0.3-66.4,19.6C170.2,259.2,151.1,265.2,137.9,268.1L137.9,268.1z M306.7,86.9c-1.5-3-3.2-6-5-8.9 c-14.5,64.9-123.4,133.4-226,135.3c1.9,3.2,3.9,6.4,6.1,9.5c4.6,0,13.8,1.3,30.6,8.1c27.2,11,48.4,5.3,63-12.9 c14.6-18.3,23.6-16.9,42.8-18.3c19.2-1.3,21.2-21.2,26.5-30.9c5.3-9.6,15.6-15.6,34.5-20.6c18.9-5,13.9-28.5,15.6-34.8 C296.3,108.3,305,97.4,306.7,86.9L306.7,86.9z M296.6,70.4c-1.6-2.2-3.2-4.3-4.9-6.4c-3,17.5-13.2,42.6-45.9,46.5 c-51.1,6-72.7-1-84.6,20.9c-11.9,21.9-29.2,13.3-43.8,13.6c-14.6,0.3-9,22.6-21.6,25.9s-21.6-1.7-29.2,5.6c-1.6,1.5-3,3.3-4.2,5.3 c1.8,6.5,4.1,12.9,6.8,19.1C163.5,196.8,286.5,121,296.6,70.4L296.6,70.4z" fill="#004aad" fill-opacity="0.549" fill-rule="evenodd"/></g><g id="change3_1"><path clip-rule="evenodd" d="M309.3,92.3C329.9,233,169.7,306.4,80.6,221c4.6,6.7,9.8,13.1,15.8,19c51.4,51.4,134.8,51.4,186.2,0 C322.5,200.1,331.4,140.9,309.3,92.3z" fill="#010333" fill-opacity="0.2" fill-rule="evenodd"/></g><g id="change1_2"><path d="M320.9,154.4c6.9,5.1,13.3,10.1,19.2,15c30.5,25.6,46,48.7,39,63.3c-6.9,14.6-34.6,17.1-73.7,9.6 c-38.1-7.4-87.5-24.2-139.1-48.8s-95.9-52.3-125.6-77.3c-30.5-25.6-46-48.7-39-63.3c6.9-14.6,34.6-17.1,73.7-9.6 c8.1,1.6,16.7,3.6,25.7,6c0.1,1.1-3.9,4.5-4.5,4.3c-7.8-2-15.2-3.7-22.2-5.1c-36.6-7.1-62.2-5.4-67.9,6.6c-5.8,12.1,9,33,37.6,56.9 c29.4,24.7,73.2,52.1,124.5,76.5c51.3,24.4,100.2,41.1,137.8,48.4c36.6,7.1,62.2,5.4,67.9-6.6c5.8-12.1-9-33-37.6-56.9 c-5-4.2-10.5-8.5-16.3-12.8C319.5,160.7,319.7,154.7,320.9,154.4L320.9,154.4z" fill="#38b6ff"/></g><linearGradient gradientTransform="matrix(.02835 0 0 -.02835 -46.64 -89.084)" gradientUnits="userSpaceOnUse" id="c" x1="14628.275" x2="15253.737" xlink:actuate="onLoad" xlink:show="other" xlink:type="simple" y1="-10913.93" y2="-11724.077"><stop offset="0" stop-color="#38b6ff"/><stop offset="1" stop-color="#004aad"/></linearGradient><path clip-rule="evenodd" d="M358.5,238c3.6,10,14.6,15.3,24.6,11.7c10-3.6,15.3-14.6,11.7-24.6c-3.6-10-14.6-15.3-24.6-11.7 C360.2,216.9,355,228,358.5,238L358.5,238z" fill="url(#c)" fill-rule="evenodd"/><g id="change3_2"><path clip-rule="evenodd" d="M369.5,222.9c0.8,2.3,3.3,3.4,5.5,2.6c2.3-0.8,3.4-3.3,2.6-5.5c-0.8-2.3-3.3-3.4-5.5-2.6 C369.9,218.1,368.7,220.6,369.5,222.9z M392.7,220.7c1.6,9.1-3.6,18.3-12.6,21.5c-8.5,3-17.6-0.3-22.4-7.3c0.2,1,0.5,2.1,0.8,3.1 c3.6,10,14.6,15.3,24.6,11.7c10-3.6,15.3-14.6,11.7-24.6C394.3,223.5,393.6,222,392.7,220.7L392.7,220.7z" fill="#010333" fill-opacity="0.4" fill-rule="evenodd"/></g></g></svg>