<?xml version="1.0" encoding="UTF-8" standalone="no"?><!-- Generator: Adobe Illustrator 23.0.4, SVG Export Plug-In . SVG Version: 6.00 Build 0)  --><svg xmlns="http://www.w3.org/2000/svg" enable-background="new 0 0 352.4 111.3" fill="#000000" id="Layer_1" version="1.1" viewBox="0 0 352.4 111.3" x="0px" xml:space="preserve" y="0px">
<g>
	<linearGradient gradientUnits="userSpaceOnUse" id="SVGID_1_" x1="-0.000000000002728" x2="352.45" y1="55.666" y2="55.666">
		<stop offset="0" stop-color="#5ce1e6"/>
		<stop offset="1" stop-color="#004aad"/>
	</linearGradient>
	<path d="m295.9 111.3h-240.2c-14.7 0-28.5-5.7-39-15.9-10.5-10.3-16.4-24-16.7-38.6-0.3-14.9 5.3-29 15.9-39.7 10.6-10.9 25.4-17.1 40.6-17.1h240.2c14.7 0 28.5 5.7 39 15.9 10.5 10.3 16.4 24 16.7 38.6 0.3 14.9-5.3 29-15.9 39.7-10.6 10.9-25.4 17.1-40.6 17.1zm-239.4-95.3c-11.1 0-21.5 4.4-29.2 12.3-7.5 7.6-11.5 17.6-11.3 28.2 0.4 21.4 18.2 38.9 39.7 38.9h240.2c11.1 0 21.5-4.4 29.2-12.3 7.5-7.6 11.5-17.7 11.3-28.2-0.4-21.5-18.2-38.9-39.6-38.9h-240.3z" fill="url(#SVGID_1_)"/>
</g>
</svg>