<?xml version="1.0" encoding="UTF-8"?><svg xmlns="http://www.w3.org/2000/svg" xmlns:xlink="http://www.w3.org/1999/xlink" height="392.6" preserveAspectRatio="xMidYMid meet" version="1.0" viewBox="0.0 0.0 367.0 392.6" width="367.0" zoomAndPan="magnify"><g><linearGradient gradientTransform="matrix(.02835 0 0 -.02835 -52.47 -38.327)" gradientUnits="userSpaceOnUse" id="a" x1="9708.614" x2="7219.918" xlink:actuate="onLoad" xlink:show="other" xlink:type="simple" xmlns:xlink="http://www.w3.org/1999/xlink" y1="-10216.739" y2="-6627.212"><stop offset="0" stop-color="#f9f"/><stop offset="1" stop-color="#69f"/></linearGradient><path clip-rule="evenodd" d="M177.2,72.2c5.3-0.2,11,1.1,15.7,5.7c11.8,11.8,24,1.8,33.7,4.2c9.7,2.5,13.9,12.6,15.3,18.2 s18.9,1.6,22.6,7.6c3.7,6-6.8,28.5,2.8,31.5c9.6,3,18.7,1.3,20.6,6c2,4.7-4.2,10.4,0,13.8c4.2,3.4,9.6,4.1,10.3,9.6 c0.7,5.5-15.8,8.4-12.1,17c3.7,8.6,22.6,10,16.8,23.4c-5.8,13.4-18.7,3.9-21.3,18.4c-2.6,14.5,9,22.6,5.7,30.1 c-3.3,7.5-18.3,3.5-24.8,8c-6.6,4.5-0.9,15.5-8.9,19.7c-8,4.2-25.5-4.6-30.6,8.9c-5.1,13.5-12.9,8.7-21.8,9.3 c-8.9,0.7-8.3,10.9-17.6,12.1c-9.3,1.2-6.8-14.7-19.8-11.8c-13,2.9-16.8,0.1-20-5.8c-3.2-5.9-7.8-12.5-21.4-10.9 c-13.7,1.6-17.7-13.9-16.4-20.9c1.3-7-20.1-7.4-23.9-15.1c-3.8-7.8,9.7-21.4,7.4-26.7c-2.4-5.3-18-6-17.6-12.8 c0.4-6.7,8.8-8.9,8-15.6C78.8,189.7,61.8,174,72,169c10.1-5,21.7-3.4,22.3-14.1c0.7-10.6-11.4-23.3-2.2-28.7 c9.2-5.4,18.7-1.7,22-8.9c3.3-7.2,0.1-16,6.7-17.1c6.6-1.1,16.2,0.7,21-8c4.9-8.7,5.5-10.6,10.5-10.9 C158.9,81,163.4,72.7,177.2,72.2L177.2,72.2z" fill="url(#a)" fill-opacity=".2" fill-rule="evenodd"/><linearGradient gradientTransform="matrix(.02835 0 0 -.02835 -52.47 -38.327)" gradientUnits="userSpaceOnUse" id="b" x1="7384.737" x2="9405.283" xlink:actuate="onLoad" xlink:show="other" xlink:type="simple" xmlns:xlink="http://www.w3.org/1999/xlink" y1="-6563.621" y2="-9477.953"><stop offset="0" stop-color="#f9f"/><stop offset="1" stop-color="#69f"/></linearGradient><path clip-rule="evenodd" d="M193.8,293.1c-4.3,0.2-8.9-0.9-12.7-4.7c-9.6-9.6-19.5-1.5-27.3-3.4c-7.9-2-11.3-10.2-12.5-14.8 c-1.2-4.6-15.4-1.3-18.4-6.2c-3-4.9,5.6-23.2-2.2-25.6c-7.8-2.5-15.2-1.1-16.8-4.9c-1.6-3.8,3.4-8.4,0-11.2 c-3.4-2.8-7.8-3.3-8.3-7.8c-0.5-4.5,12.8-6.8,9.8-13.8c-3-7-18.4-8.1-13.7-19c4.7-10.9,15.2-3.2,17.3-14.9 c2.1-11.7-7.3-18.3-4.6-24.4c2.7-6.1,14.8-2.9,20.2-6.5c5.3-3.6,0.7-12.6,7.3-16c6.5-3.4,20.7,3.7,24.9-7.3c4.2-11,10.5-7,17.7-7.6 c7.3-0.5,6.7-8.9,14.3-9.8c7.6-1,5.6,12,16.1,9.6c10.6-2.3,13.7-0.1,16.2,4.7c2.6,4.8,6.3,10.1,17.4,8.9 c11.1-1.3,14.4,11.3,13.3,17c-1.1,5.7,16.3,6,19.4,12.3c3.1,6.3-7.9,17.4-6,21.7c1.9,4.3,14.6,4.9,14.3,10.4 c-0.3,5.4-7.2,7.3-6.5,12.7c0.6,5.4,14.4,18.1,6.2,22.2c-8.2,4.1-17.6,2.8-18.1,11.4c-0.5,8.6,9.3,18.9,1.8,23.3 c-7.5,4.4-15.2,1.4-17.8,7.3c-2.7,5.9-0.1,13-5.4,13.9c-5.3,0.9-13.1-0.5-17.1,6.5c-3.9,7-4.5,8.6-8.5,8.9 C208.7,286,205,292.7,193.8,293.1L193.8,293.1z" fill="url(#b)" fill-opacity=".251" fill-rule="evenodd"/><g id="change1_1"><path clip-rule="evenodd" d="M183.5 0L193.3 185.6 367 196.3 193.5 206.7 183.5 392.6 173.7 206.9 0 196.3 173.5 185.8z" fill="#9ff" fill-opacity=".302" fill-rule="evenodd"/></g><g id="change2_1"><path clip-rule="evenodd" d="M183.5,165.4c17.1,0,30.9,13.8,30.9,30.9s-13.8,30.9-30.9,30.9c-17.1,0-30.9-13.8-30.9-30.9 S166.4,165.4,183.5,165.4z" fill="#f9f" fill-opacity=".102" fill-rule="evenodd"/></g><g id="change2_2"><path clip-rule="evenodd" d="M183.5,176c11.2,0,20.2,9.1,20.2,20.2c0,11.2-9.1,20.2-20.2,20.2c-11.2,0-20.2-9.1-20.2-20.2 S172.3,176,183.5,176z" fill="#f9f" fill-opacity=".2" fill-rule="evenodd"/></g><g id="change1_2"><path clip-rule="evenodd" d="M183.5 38L188.7 190.4 331.5 196.3 189 201.8 183.5 354.5 178.3 202.2 35.5 196.3 178 190.8z" fill="#9ff" fill-opacity=".302" fill-rule="evenodd"/></g><g id="change3_1"><path clip-rule="evenodd" d="M183.5 111.8L185.7 194.1 262.5 196.3 185.5 198.6 183.5 280.8 181.3 198.4 104.5 196.3 181.5 194z" fill="#fff" fill-rule="evenodd"/></g><g id="change3_2"><circle clip-rule="evenodd" cx="183.5" cy="196.3" fill="#fff" fill-rule="evenodd" r="14.5"/></g><g id="change3_3"><path clip-rule="evenodd" d="M183.5,165.4c3,0,5.5,13.8,5.5,30.9c0,17-2.4,30.9-5.5,30.9c-3,0-5.5-13.8-5.5-30.9S180.5,165.4,183.5,165.4z" fill="#fff" fill-opacity=".549" fill-rule="evenodd"/></g><g id="change3_4"><path clip-rule="evenodd" d="M152.6,196.3c0-3,13.8-5.5,30.9-5.5c17,0,30.9,2.4,30.9,5.5c0,3-13.8,5.5-30.9,5.5 C166.5,201.7,152.6,199.3,152.6,196.3z" fill="#fff" fill-opacity=".549" fill-rule="evenodd"/></g><g id="change1_3"><path clip-rule="evenodd" d="M183.5,137.5c32.5,0,58.8,26.3,58.8,58.8c0,32.5-26.3,58.8-58.8,58.8c-32.5,0-58.8-26.3-58.8-58.8 C124.7,163.8,151,137.5,183.5,137.5z" fill="#9ff" fill-opacity=".102" fill-rule="evenodd"/></g><linearGradient gradientTransform="matrix(.02835 0 0 -.02835 -52.47 -38.327)" gradientUnits="userSpaceOnUse" id="c" x1="9882.565" x2="7058.019" xlink:actuate="onLoad" xlink:show="other" xlink:type="simple" xmlns:xlink="http://www.w3.org/1999/xlink" y1="-10490.517" y2="-6412.796"><stop offset="0" stop-color="#f9f"/><stop offset="1" stop-color="#69f"/></linearGradient><path d="M176.1,55.7c3.4-0.1,6.9,0.3,10.4,1.5c2.9,1.1,5.8,2.8,8.4,5.4h0c8,8,16.3,6.4,23.9,5c4.6-0.9,9-1.7,13.2-0.6 c4.8,1.2,8.5,4,11.3,7.3c3.9,4.7,6.1,10.4,7,14.3c0.5,2.1,5.2,2.5,10.2,2.9c6.1,0.5,12.5,1.1,15,5.2c2,3.2,1,9.3-0.1,15.7 c-1.4,8.4-2.8,17.4,2.3,19c4.1,1.3,8.1,1.8,11.6,2.2c6.1,0.8,10.9,1.4,12.6,5.5c1.2,2.9,0.3,5.8-0.6,8.5c-0.8,2.5-1.6,4.9,0.2,6.3 c1.4,1.1,2.9,2,4.4,2.8c3.7,2.1,7.1,4,7.7,9c0.4,3.6-3.1,5.9-6.9,8.5c-4.1,2.7-8.6,5.8-6.8,10.1c1.4,3.2,5.2,5.5,9,7.9 c7.2,4.5,14.5,9,9.9,19.6c-3.4,8-8.8,9.3-13.8,10.6c-4.5,1.2-8.6,2.2-10,9.7c-1.5,8.3,1.4,14.7,3.9,20.1c2.4,5.2,4.3,9.5,2.3,14.1 c-2.5,5.7-9.5,6.3-16.5,7c-4.6,0.4-9.2,0.8-12,2.7c-2.9,2-3.3,5.6-3.7,9.3c-0.5,5-1,10-6.5,12.9c-3.7,1.9-8.6,1.7-13.8,1.4 c-8-0.4-16.6-0.8-19.9,7.8c-4.8,12.7-11.5,12.2-19.2,11.7c-2.1-0.2-4.4-0.3-6.6-0.2c-4.3,0.3-6.4,3.1-8.6,5.9 c-2.6,3.4-5.2,6.9-11.1,7.6c-5.7,0.7-8-3-10.4-7c-2.3-3.8-4.8-7.9-11.7-6.3c-7.6,1.7-12.6,1.7-16.2,0.4c-3.8-1.4-6-4-7.9-7.7 c-1.7-3.1-3.7-6.5-7.1-8.7c-3.4-2.3-8.2-3.5-15.4-2.7c-2,0.2-3.8,0.2-5.5-0.2c-4.8-0.9-8.3-3.8-10.7-7.4c-2.3-3.5-3.6-7.7-4.1-11.5 c-0.3-2.3-0.2-4.5,0.1-6.3c0.5-2.7-4.9-4.6-10.9-6.6c-6.5-2.2-13.5-4.6-15.8-9.4c-2.7-5.5,1.1-12.8,4.5-19.3 c2.4-4.6,4.6-8.8,3.8-10.7c-0.9-2-4.7-3.5-8.6-5.1c-5.8-2.3-11.7-4.6-11.3-10c0.2-4.1,2.7-6.8,5.1-9.4c2.2-2.4,4.3-4.7,3.9-7.9 c-0.3-2.2-2.6-5.8-5-9.6c-1.8-2.7-3.6-5.6-5-8.4c-2.9-5.9-3.7-11.3,2.3-14.3c3.7-1.8,7.5-2.9,11-3.9c7-1.9,12.7-3.5,13.2-10.6 c0.3-4.4-1.6-9.2-3.3-13.8c-3-8-5.8-15.2,1.6-19.6c4.7-2.8,9.4-3.5,13.6-4.2c4.8-0.7,8.7-1.4,10.4-5.2c1.3-2.9,1.7-6.2,2-9.1 c0.6-5.5,1-10.1,6.8-11c1.7-0.3,3.5-0.4,5.3-0.5c6.2-0.4,13.3-0.8,17.2-7.7l1.3-2.3c4.7-8.4,5.8-10.5,11.8-10.8 c2.6-0.1,5.1-1.7,8-3.5C160.7,59.6,166.4,56.1,176.1,55.7L176.1,55.7z M185.4,60.2c-3-1.1-6.2-1.4-9.2-1.3 c-8.8,0.3-14.1,3.6-18.5,6.3c-3.3,2-6.1,3.8-9.5,3.9c-4.3,0.2-5.2,2-9.2,9.2l-1.3,2.3C133,89,125,89.5,118,89.9 c-1.8,0.1-3.5,0.2-5,0.5c-3.3,0.5-3.7,4-4.1,8.2c-0.3,3.2-0.7,6.7-2.2,10.1c-2.4,5.4-7.1,6.1-12.8,7c-3.9,0.6-8.2,1.3-12.5,3.8 c-5.1,3-2.8,9.1-0.3,15.8c1.9,4.9,3.9,10.1,3.5,15.1c-0.6,9.3-7.3,11.2-15.5,13.5c-3.4,0.9-7,2-10.5,3.6c-3.8,1.9-3,5.8-0.9,10.1 c1.3,2.6,3.1,5.4,4.8,8.1c2.7,4.2,5.2,8,5.5,11c0.5,4.6-2.1,7.5-4.7,10.4c-2,2.2-4.1,4.4-4.3,7.5c-0.2,3.1,4.6,5,9.4,6.9 c4.5,1.8,8.8,3.5,10.3,6.7c1.5,3.3-1,8.2-3.8,13.5c-3.1,5.8-6.5,12.3-4.4,16.4c1.8,3.6,8.1,5.8,14,7.8c7.3,2.5,14,4.8,13,10.2 c-0.3,1.5-0.3,3.3-0.1,5.3c0.4,3.3,1.5,7.1,3.6,10.1c2,3,4.8,5.3,8.6,6c1.4,0.3,2.9,0.3,4.6,0.1c8.1-0.9,13.6,0.6,17.5,3.2 c3.9,2.6,6.2,6.3,8.1,9.8c1.6,3,3.3,5.2,6.2,6.2c3.1,1.1,7.5,1,14.5-0.5c9.1-2,12.2,3,15.1,7.8c1.9,3.1,3.6,6,7.4,5.5 c4.6-0.6,6.8-3.5,9-6.4c2.6-3.4,5.1-6.8,10.9-7.2c2.5-0.2,4.8,0,7.1,0.2c6.5,0.5,12.1,0.9,16.1-9.6c4.1-10.7,13.9-10.2,23-9.8 c4.7,0.2,9.2,0.4,12.1-1.1c4-2.1,4.4-6.3,4.9-10.4c0.5-4.4,0.9-8.8,5-11.6c3.5-2.4,8.5-2.8,13.4-3.2c6.1-0.5,12.1-1.1,13.9-5.1 c1.4-3.3-0.3-7-2.3-11.5c-2.7-5.8-5.8-12.7-4.1-22c1.7-9.4,6.8-10.7,12.3-12.2c4.3-1.1,8.9-2.3,11.7-8.8c3.5-8.1-2.6-11.9-8.7-15.7 c-4.2-2.6-8.5-5.3-10.2-9.3c-2.9-6.7,2.8-10.5,7.9-14c3-2,5.7-3.8,5.5-5.5c-0.4-3.5-3.1-5-6.1-6.6c-1.6-0.9-3.3-1.8-4.8-3.1 c-3.4-2.8-2.3-6.2-1.2-9.8c0.7-2.2,1.5-4.5,0.7-6.4c-1-2.4-4.9-2.9-10-3.5c-3.6-0.5-7.8-1-12.1-2.3c-7.7-2.4-6-12.9-4.4-22.5 c0.9-5.8,1.8-11.3,0.5-13.6c-1.7-2.7-7.3-3.2-12.6-3.7c-6.1-0.5-11.9-1.1-13-5.3c-0.9-3.6-2.9-8.8-6.4-13c-2.4-2.9-5.6-5.3-9.7-6.3 c-3.5-0.9-7.6-0.1-11.8,0.7c-8.4,1.6-17.6,3.3-26.7-5.8C190.4,62.6,187.9,61.1,185.4,60.2L185.4,60.2L185.4,60.2z" fill="url(#c)" fill-opacity=".2"/></g></svg>