<?xml version="1.0" encoding="UTF-8" standalone="no"?><svg xmlns="http://www.w3.org/2000/svg" xmlns:xlink="http://www.w3.org/1999/xlink" fill="#001f53" height="78.7" preserveAspectRatio="xMidYMid meet" version="1" viewBox="0.0 -0.2 69.6 78.7" width="69.6" zoomAndPan="magnify"><g data-name="24" id="change1_1"><path d="M31.211,32.367a3.218,3.218,0,0,0,2.272,5.489h2.594a5.781,5.781,0,0,1,0,11.561h-.022v2.489a1.276,1.276,0,0,1-2.551,0V49.417h-.021A5.8,5.8,0,0,1,27.7,43.636a1.282,1.282,0,0,1,2.563,0,3.23,3.23,0,0,0,3.218,3.218h2.594a3.218,3.218,0,0,0,0-6.435H33.483a5.781,5.781,0,0,1,0-11.561H33.5V26.369a1.276,1.276,0,0,1,2.551,0v2.489h.022a5.8,5.8,0,0,1,5.78,5.78,1.281,1.281,0,0,1-2.562,0,3.233,3.233,0,0,0-3.218-3.218H33.483A3.21,3.21,0,0,0,31.211,32.367Zm38.348-14.1V60.012H0V18.263ZM2.167,29.586A8.936,8.936,0,0,0,8.6,27.032a8.933,8.933,0,0,0,2.531-6.6H2.167Zm8.978,28.259a8.939,8.939,0,0,0-2.553-6.458,8.926,8.926,0,0,0-6.425-2.541v9Zm56.247-8.987a8.707,8.707,0,0,0-9.186,8.987h9.186Zm0-16.86A11.111,11.111,0,0,1,55.8,20.43H13.55a11.336,11.336,0,0,1-3.238,8.318,11.342,11.342,0,0,1-8.145,3.26V46.424a11.345,11.345,0,0,1,8.141,3.247,11.341,11.341,0,0,1,3.259,8.174H55.784a11.114,11.114,0,0,1,11.608-11.41Zm0-11.568H58.224a8.7,8.7,0,0,0,9.168,9.145ZM21.654,9.093A33.913,33.913,0,0,1,36.085,6.924,34.65,34.65,0,0,1,47.512,9.7L42.5,11.867A1.436,1.436,0,1,0,43.637,14.5l7.929-3.423a.625.625,0,0,0,.133-.091,1.387,1.387,0,0,0,.244-.176,1.635,1.635,0,0,0,.2-.234.513.513,0,0,0,.088-.111.244.244,0,0,0,.041-.106,1.605,1.605,0,0,0,.09-.3,1.157,1.157,0,0,0,.038-.243,2.03,2.03,0,0,0-.083-.522L48.559.85a1.445,1.445,0,0,0-1.9-.728,1.44,1.44,0,0,0-.726,1.9l2.148,4.805a37.588,37.588,0,0,0-11.8-2.766A36.8,36.8,0,0,0,20.607,6.41a1.44,1.44,0,0,0,1.047,2.683ZM51.538,69.415a1.423,1.423,0,0,0-1.1-.022,33.9,33.9,0,0,1-14.432,2.168,34.663,34.663,0,0,1-11.427-2.779l5.015-2.165a1.436,1.436,0,0,0-1.139-2.636L20.528,67.4a.625.625,0,0,0-.136.092,1.4,1.4,0,0,0-.244.177,1.673,1.673,0,0,0-.2.232.59.59,0,0,0-.1.134.242.242,0,0,0-.025.081,1.565,1.565,0,0,0-.093.3,1.278,1.278,0,0,0-.038.243,1.448,1.448,0,0,0,.022.246,1.23,1.23,0,0,0,.061.274l3.757,8.45a1.439,1.439,0,0,0,1.314.851,1.437,1.437,0,0,0,1.31-2.023l-2.148-4.8a37.56,37.56,0,0,0,11.805,2.766,36.756,36.756,0,0,0,15.67-2.351,1.439,1.439,0,0,0,.055-2.658Z"/></g></svg>