<?xml version="1.0" encoding="UTF-8" standalone="no"?><svg xmlns="http://www.w3.org/2000/svg" xmlns:xlink="http://www.w3.org/1999/xlink" data-name="Layer 1" fill="#001f53" height="94" preserveAspectRatio="xMidYMid meet" version="1" viewBox="7.0 8.0 96.0 94.0" width="96" zoomAndPan="magnify"><g id="change1_1"><path d="M31.5,101.979a1.007,1.007,0,0,1-.485-.125L7.517,88.826A1,1,0,0,1,7,87.951V61.279A1,1,0,0,1,8.483,60.4l23.494,12.89a1,1,0,0,1,.518.877v26.81a1,1,0,0,1-1,1ZM9,87.362,30.5,99.281V74.761L9,62.968Z" fill="inherit"/></g><g id="change1_2"><path d="M31.5,75.167a.994.994,0,0,1-.48-.123L7.52,62.157A1,1,0,0,1,7.525,60.4l23.5-12.669a1,1,0,0,1,.95,0L55.475,60.4a1,1,0,0,1,0,1.757L31.98,75.044A.994.994,0,0,1,31.5,75.167ZM10.094,61.288,31.5,73.027,52.906,61.288,31.5,49.747Z" fill="inherit"/></g><g id="change1_3"><path d="M31.5,101.979a1,1,0,0,1-1-1V74.169a1,1,0,0,1,.52-.877l23.5-12.89a1,1,0,0,1,1.48.877V87.951a1,1,0,0,1-.516.875l-23.5,13.028A1,1,0,0,1,31.5,101.979Zm1-27.218V99.282L54,87.362V62.968Z" fill="inherit"/></g><g id="change1_4"><path d="M55,62.389a1.007,1.007,0,0,1-.485-.125L31.02,49.236a1,1,0,0,1-.515-.875V21.689a1,1,0,0,1,1.481-.877L55.479,33.7A1,1,0,0,1,56,34.58V61.389a1,1,0,0,1-1,1ZM32.505,47.772,54,59.691V35.171L32.505,23.378Z" fill="inherit"/></g><g id="change1_5"><path d="M55,35.579a1,1,0,0,1-.481-.123l-23.5-12.889a1,1,0,0,1,.006-1.757l23.5-12.669a1,1,0,0,1,.95,0l23.5,12.669a1,1,0,0,1,0,1.757l-23.5,12.889A.994.994,0,0,1,55,35.579ZM33.6,21.7,55,33.438,76.408,21.7,55,10.157Z" fill="inherit"/></g><g id="change1_6"><path d="M55,62.389a1,1,0,0,1-1-1V34.58a1,1,0,0,1,.52-.877l23.5-12.891a1,1,0,0,1,1.48.877V48.361a1,1,0,0,1-.516.875l-23.5,13.028A1,1,0,0,1,55,62.389Zm1-27.218V59.692l21.5-11.92V23.378Z" fill="inherit"/></g><g id="change1_7"><path d="M78.5,101.979a1.007,1.007,0,0,1-.485-.125L54.517,88.826A1,1,0,0,1,54,87.951V61.279a1,1,0,0,1,1.481-.877l23.494,12.89a1,1,0,0,1,.518.877v26.81a1,1,0,0,1-1,1ZM56,87.362,77.5,99.281V74.761L56,62.968Z" fill="inherit"/></g><g id="change1_8"><path d="M78.5,75.167a.994.994,0,0,1-.48-.123L54.52,62.157a1,1,0,0,1,0-1.757l23.5-12.669a1,1,0,0,1,.95,0l23.5,12.669a1,1,0,0,1,.005,1.757L78.98,75.044A.994.994,0,0,1,78.5,75.167ZM57.094,61.288,78.5,73.027,99.906,61.288,78.5,49.747Z" fill="inherit"/></g><g id="change1_9"><path d="M78.5,101.979a1,1,0,0,1-1-1V74.169a1,1,0,0,1,.52-.877l23.5-12.89a1,1,0,0,1,1.48.877V87.951a1,1,0,0,1-.516.875l-23.5,13.028A1,1,0,0,1,78.5,101.979Zm1-27.218V99.282L101,87.362V62.968Z" fill="inherit"/></g></svg>