<?xml version="1.0" encoding="UTF-8" standalone="no"?><svg xmlns="http://www.w3.org/2000/svg" xmlns:xlink="http://www.w3.org/1999/xlink" fill="#001f53" height="60.1" preserveAspectRatio="xMidYMid meet" version="1" viewBox="0.0 34.0 128.0 60.1" width="128" zoomAndPan="magnify"><g id="change1_1"><path d="M93.8 51.9L80 44 80 50 58 50 58 54 80 54 80 59.9z" fill="inherit"/></g><g id="change1_2"><path d="M52 54.1L38.2 62 52 70 52 64 74 64 74 60 52 60z" fill="inherit"/></g><g id="change1_3"><path d="M54,66v7.5L34.2,62L54,50.6V58h10v-2h-8v-8h8v-5.7c0-4.6-3.7-8.3-8.3-8.3H8.3C3.7,34,0,37.7,0,42.3v29.4 C0,76.4,3.6,80,8.3,80h23.1l9.1,8.9l4.9,4.8l1.8-6.6l1.9-7h6.6c4.7,0,8.3-3.6,8.3-8.2V66H54z" fill="inherit"/></g><g id="change1_4"><path d="M120,34H76c-4.4,0-8,3.7-8,8.3V48h10v-7.5l19.8,11.4L78,63.4V56H68v2h8v8h-8v5.8c0,4.6,3.5,8.2,8,8.2h5.9l1.7,7l1.8,7.1 l5-5.3l8.3-8.8H120c4.5,0,8-3.6,8-8.2V42.3C128,37.7,124.4,34,120,34z" fill="inherit"/></g></svg>