<?xml version="1.0" encoding="UTF-8" standalone="no"?><svg xmlns="http://www.w3.org/2000/svg" xmlns:xlink="http://www.w3.org/1999/xlink" data-name="Layer 1" fill="#000000" height="221.1" preserveAspectRatio="xMidYMid meet" version="1" viewBox="0.0 0.0 376.8 221.1" width="376.8" zoomAndPan="magnify"><g id="change1_1"><path d="M585.439,301.044a38.239,38.239,0,0,0,27.269-11.395,39.225,39.225,0,0,0,0-55.113,38.292,38.292,0,0,0-54.567,0,39.295,39.295,0,0,0,0,55.113A38.3,38.3,0,0,0,585.439,301.044Zm0-72.206a32.722,32.722,0,0,1,23.272,9.735,33.482,33.482,0,0,1,0,47.011,32.687,32.687,0,0,1-46.545,0,33.482,33.482,0,0,1,0-47.011A32.676,32.676,0,0,1,585.439,228.838Z" fill="#001f53" fill-rule="evenodd" transform="translate(-450.708 -132.927)"/></g><g id="change1_2"><path d="M804.755,219.992a161.331,161.331,0,0,0-22.734-3.923,263.662,263.662,0,0,0-55.417,0q-3.231.344-6.463.773V195.427H690.632l-204.321-62.5-8.164,27.2-7.908-1.89-8.674,37.191H450.708V328.758H681.136v3.894c0,9.019,16.073,13.8,22.734,15.489a161.4,161.4,0,0,0,22.734,3.951,268.976,268.976,0,0,0,55.417,0,161.4,161.4,0,0,0,22.734-3.951c6.662-1.689,22.734-6.47,22.734-15.489V235.509C827.489,226.462,811.417,221.709,804.755,219.992ZM602.021,195.427H467.4l7.058-30.291Zm69.052,0H626.8L483.675,161.443l6.406-21.387ZM821.82,332.652c0,2.033-2.977,3.98-4.507,4.838-4.111,2.348-9.383,3.951-13.947,5.125a158.37,158.37,0,0,1-22,3.78,261.776,261.776,0,0,1-54.113,0,159.113,159.113,0,0,1-22-3.78c-4.564-1.174-9.836-2.777-13.946-5.125-1.5-.858-4.507-2.805-4.507-4.838V322c5.272,3.665,12.954,5.87,17.064,6.929a157.258,157.258,0,0,0,22.734,3.922,263.662,263.662,0,0,0,55.417,0,157.258,157.258,0,0,0,22.734-3.922c4.11-1.059,11.792-3.264,17.065-6.929Zm-25.966-8.045a246.818,246.818,0,0,1-83.083,0c-6.747-1.289-18.794-4.094-24.095-8.7a6.879,6.879,0,0,1-1.53-1.746,2.444,2.444,0,0,1-.34-1.174v-9.992c5.272,3.665,12.954,5.869,17.064,6.928a165.467,165.467,0,0,0,22.734,3.923,268.976,268.976,0,0,0,55.417,0,165.467,165.467,0,0,0,22.734-3.923c4.11-1.059,11.792-3.263,17.065-6.928v8.818a7.089,7.089,0,0,0-.312.83,11.961,11.961,0,0,1-1.559,3.264C814.648,320.513,802.6,323.318,795.854,324.607Zm-41.527-34.7a224.6,224.6,0,0,1-41.556-3.522c-6.747-1.288-18.794-4.094-24.095-8.7a6.559,6.559,0,0,1-1.53-1.775,2.34,2.34,0,0,1-.34-1.146V263.8a33.842,33.842,0,0,0,4.422,2.491,70.913,70.913,0,0,0,12.642,4.38,161.257,161.257,0,0,0,22.734,3.951,263.467,263.467,0,0,0,27.723,1.432,262.918,262.918,0,0,0,27.694-1.432,161.257,161.257,0,0,0,22.734-3.951,70.919,70.919,0,0,0,12.643-4.38,33.974,33.974,0,0,0,4.422-2.491v9.792a7.023,7.023,0,0,0-.312.83,12.381,12.381,0,0,1-1.559,3.264c-5.3,4.609-17.348,7.415-24.095,8.7A224.491,224.491,0,0,1,754.327,289.907ZM472.393,297.15V227.035a16.041,16.041,0,0,0,12.7-12.827H685.757a16.144,16.144,0,0,0,4.393,8.389,12.326,12.326,0,0,0,1.7,1.489c-5.1,2.347-9.751,5.64-10.573,9.992h-.142v75.87H485.092a15.959,15.959,0,0,0-12.7-12.8ZM821.82,292.6a7.089,7.089,0,0,0-.312.83,11.961,11.961,0,0,1-1.559,3.264c-5.3,4.61-17.348,7.415-24.095,8.7a246.818,246.818,0,0,1-83.083,0c-6.747-1.289-18.794-4.094-24.095-8.7a6.879,6.879,0,0,1-1.53-1.746,2.536,2.536,0,0,1-.34-1.174V283.408a33.485,33.485,0,0,0,5.867,3.149,76.8,76.8,0,0,0,11.2,3.751A165.617,165.617,0,0,0,726.6,294.23a256.137,256.137,0,0,0,27.723,1.432,255.6,255.6,0,0,0,27.694-1.432,165.617,165.617,0,0,0,22.734-3.922,75.7,75.7,0,0,0,11.2-3.751,33.532,33.532,0,0,0,5.868-3.149Zm0-38.651a7.5,7.5,0,0,0-.312.859l-.085.229a9.856,9.856,0,0,1-1.474,3.006c-5.3,4.638-17.348,7.416-24.095,8.7a246.818,246.818,0,0,1-83.083,0c-6.747-1.288-18.794-4.066-24.095-8.7a6.879,6.879,0,0,1-1.53-1.746,2.444,2.444,0,0,1-.34-1.174V244.156c4.592,3.149,11.281,5.411,17.376,6.928,4.649,1.174,9.383,2.09,14.145,2.806a241.268,241.268,0,0,0,36,2.491,241.9,241.9,0,0,0,36.028-2.491c4.677-.716,9.383-1.6,13.947-2.749,6.122-1.546,12.9-3.807,17.518-6.985Zm-.312-18.753-.085.229a10.221,10.221,0,0,1-1.474,3.007c-2.863,2.519-7.739,4.466-12.671,5.955-1.332.4-2.636.744-3.912,1.088-1.19.286-2.381.572-3.6.858-1.417.315-2.749.573-3.912.8-1.672.315-3.345.6-5.045.888-3.147.486-6.293.887-9.44,1.231a250.953,250.953,0,0,1-27.042,1.4,251.49,251.49,0,0,1-27.071-1.4c-3.118-.344-6.265-.745-9.411-1.231-1.7-.258-3.4-.573-5.074-.888-1.162-.229-2.523-.487-3.94-.8l-3.572-.858c-1.247-.315-2.551-.688-3.855-1.06-4.932-1.489-9.836-3.464-12.728-5.983a6.884,6.884,0,0,1-1.53-1.747,2.336,2.336,0,0,1-.34-1.145v-.029c0-2.061,3-4.008,4.507-4.867a57.4,57.4,0,0,1,13.946-5.1,159.332,159.332,0,0,1,22-3.808,261.59,261.59,0,0,1,54.113,0,158.582,158.582,0,0,1,22,3.808,57.418,57.418,0,0,1,13.947,5.1c1.332.744,3.741,2.319,4.365,4.037ZM714.472,217.73c-3.572.63-7.115,1.374-10.6,2.262-1.276.315-2.92.773-4.734,1.345a10.449,10.449,0,0,1-4.989-2.777,10.237,10.237,0,0,1-2.976-7.215v-2.863H479.678v2.863a10.237,10.237,0,0,1-2.976,7.215,10.037,10.037,0,0,1-7.144,3.006h-2.834V302.59h2.834A10.037,10.037,0,0,1,476.7,305.6a10.238,10.238,0,0,1,2.976,7.215v2.863H681.136v7.358H456.377V201.153H714.472Z" fill="#001f53" fill-rule="evenodd" transform="translate(-450.708 -132.927)"/></g><g id="change1_3"><path d="M580.846,278.712v5.726h8.108v-5.926c3.515-.458,6.037-1.546,7.54-3.178a9.631,9.631,0,0,0,2.239-6.728,11.881,11.881,0,0,0-.822-4.753,6.425,6.425,0,0,0-3-3.149,17.919,17.919,0,0,0-6.208-1.632l-3.2-.372a27.92,27.92,0,0,1-3.373-.516,2.677,2.677,0,0,1-1.559-.858,3.193,3.193,0,0,1-.369-1.661,2.48,2.48,0,0,1,.567-1.746,3.488,3.488,0,0,1,1.956-.888,21.164,21.164,0,0,1,4.054-.286,31.368,31.368,0,0,1,10.46,1.775l.141-.2.171-6.928a27.034,27.034,0,0,0-8.589-1.747v-5.926h-8.108v6.241c-3.146.458-5.414,1.46-6.746,2.978a9.421,9.421,0,0,0-1.984,6.413,12.52,12.52,0,0,0,.878,4.982,6.9,6.9,0,0,0,3.034,3.292,15.043,15.043,0,0,0,5.9,1.575l3.316.315a20.567,20.567,0,0,1,3.458.515,2.8,2.8,0,0,1,1.559.916,2.6,2.6,0,0,1,.4,1.518,2.872,2.872,0,0,1-.538,1.832,3.931,3.931,0,0,1-2.325,1.059,33.645,33.645,0,0,1-5.329.315,33.03,33.03,0,0,1-5.272-.429,28.882,28.882,0,0,1-4.876-1.2l-.2.172V277.4c1.332.344,2.721.63,4.138.859A31.92,31.92,0,0,0,580.846,278.712Z" fill="#001f53" fill-rule="evenodd" transform="translate(-450.708 -132.927)"/></g></svg>